G04 #@! TF.FileFunction,Legend,Top*
%FSLAX46Y46*%
G04 Gerber Fmt 4.6, Leading zero omitted, Abs format (unit mm)*
G04 Created by KiCad (PCBNEW 4.0.7) date *
%MOMM*%
%LPD*%
G01*
G04 APERTURE LIST*
%ADD10C,2.000000*%
%ADD11C,0.150000*%
G04 APERTURE END LIST*
D10*
D11*
X52750000Y-83865000D02*
X52750000Y-83230000D01*
X52750000Y-85135000D02*
X52750000Y-85770000D01*
X53385000Y-85135000D02*
X52115000Y-85135000D01*
X52750000Y-85135000D02*
X52115000Y-83865000D01*
X52115000Y-83865000D02*
X53385000Y-83865000D01*
X53385000Y-83865000D02*
X52750000Y-85135000D01*
X72250000Y-78865000D02*
X72250000Y-78230000D01*
X72250000Y-80135000D02*
X72250000Y-80770000D01*
X72885000Y-80135000D02*
X71615000Y-80135000D01*
X72250000Y-80135000D02*
X71615000Y-78865000D01*
X71615000Y-78865000D02*
X72885000Y-78865000D01*
X72885000Y-78865000D02*
X72250000Y-80135000D01*
X90750000Y-83865000D02*
X90750000Y-83230000D01*
X90750000Y-85135000D02*
X90750000Y-85770000D01*
X91385000Y-85135000D02*
X90115000Y-85135000D01*
X90750000Y-85135000D02*
X90115000Y-83865000D01*
X90115000Y-83865000D02*
X91385000Y-83865000D01*
X91385000Y-83865000D02*
X90750000Y-85135000D01*
X109750000Y-78865000D02*
X109750000Y-78230000D01*
X109750000Y-80135000D02*
X109750000Y-80770000D01*
X110385000Y-80135000D02*
X109115000Y-80135000D01*
X109750000Y-80135000D02*
X109115000Y-78865000D01*
X109115000Y-78865000D02*
X110385000Y-78865000D01*
X110385000Y-78865000D02*
X109750000Y-80135000D01*
X128750000Y-83865000D02*
X128750000Y-83230000D01*
X128750000Y-85135000D02*
X128750000Y-85770000D01*
X129385000Y-85135000D02*
X128115000Y-85135000D01*
X128750000Y-85135000D02*
X128115000Y-83865000D01*
X128115000Y-83865000D02*
X129385000Y-83865000D01*
X129385000Y-83865000D02*
X128750000Y-85135000D01*
X147750000Y-78865000D02*
X147750000Y-78230000D01*
X147750000Y-80135000D02*
X147750000Y-80770000D01*
X148385000Y-80135000D02*
X147115000Y-80135000D01*
X147750000Y-80135000D02*
X147115000Y-78865000D01*
X147115000Y-78865000D02*
X148385000Y-78865000D01*
X148385000Y-78865000D02*
X147750000Y-80135000D01*
X166750000Y-83865000D02*
X166750000Y-83230000D01*
X166750000Y-85135000D02*
X166750000Y-85770000D01*
X167385000Y-85135000D02*
X166115000Y-85135000D01*
X166750000Y-85135000D02*
X166115000Y-83865000D01*
X166115000Y-83865000D02*
X167385000Y-83865000D01*
X167385000Y-83865000D02*
X166750000Y-85135000D01*
X185750000Y-78865000D02*
X185750000Y-78230000D01*
X185750000Y-80135000D02*
X185750000Y-80770000D01*
X186385000Y-80135000D02*
X185115000Y-80135000D01*
X185750000Y-80135000D02*
X185115000Y-78865000D01*
X185115000Y-78865000D02*
X186385000Y-78865000D01*
X186385000Y-78865000D02*
X185750000Y-80135000D01*
X203250000Y-83865000D02*
X203250000Y-83230000D01*
X203250000Y-85135000D02*
X203250000Y-85770000D01*
X203885000Y-85135000D02*
X202615000Y-85135000D01*
X203250000Y-85135000D02*
X202615000Y-83865000D01*
X202615000Y-83865000D02*
X203885000Y-83865000D01*
X203885000Y-83865000D02*
X203250000Y-85135000D01*
X206250000Y-83865000D02*
X206250000Y-83230000D01*
X206250000Y-85135000D02*
X206250000Y-85770000D01*
X206885000Y-85135000D02*
X205615000Y-85135000D01*
X206250000Y-85135000D02*
X205615000Y-83865000D01*
X205615000Y-83865000D02*
X206885000Y-83865000D01*
X206885000Y-83865000D02*
X206250000Y-85135000D01*
X52750000Y-97865000D02*
X52750000Y-97230000D01*
X52750000Y-99135000D02*
X52750000Y-99770000D01*
X53385000Y-99135000D02*
X52115000Y-99135000D01*
X52750000Y-99135000D02*
X52115000Y-97865000D01*
X52115000Y-97865000D02*
X53385000Y-97865000D01*
X53385000Y-97865000D02*
X52750000Y-99135000D01*
X71750000Y-97865000D02*
X71750000Y-97230000D01*
X71750000Y-99135000D02*
X71750000Y-99770000D01*
X72385000Y-99135000D02*
X71115000Y-99135000D01*
X71750000Y-99135000D02*
X71115000Y-97865000D01*
X71115000Y-97865000D02*
X72385000Y-97865000D01*
X72385000Y-97865000D02*
X71750000Y-99135000D01*
X90750000Y-97865000D02*
X90750000Y-97230000D01*
X90750000Y-99135000D02*
X90750000Y-99770000D01*
X91385000Y-99135000D02*
X90115000Y-99135000D01*
X90750000Y-99135000D02*
X90115000Y-97865000D01*
X90115000Y-97865000D02*
X91385000Y-97865000D01*
X91385000Y-97865000D02*
X90750000Y-99135000D01*
X109750000Y-97865000D02*
X109750000Y-97230000D01*
X109750000Y-99135000D02*
X109750000Y-99770000D01*
X110385000Y-99135000D02*
X109115000Y-99135000D01*
X109750000Y-99135000D02*
X109115000Y-97865000D01*
X109115000Y-97865000D02*
X110385000Y-97865000D01*
X110385000Y-97865000D02*
X109750000Y-99135000D01*
X128750000Y-97865000D02*
X128750000Y-97230000D01*
X128750000Y-99135000D02*
X128750000Y-99770000D01*
X129385000Y-99135000D02*
X128115000Y-99135000D01*
X128750000Y-99135000D02*
X128115000Y-97865000D01*
X128115000Y-97865000D02*
X129385000Y-97865000D01*
X129385000Y-97865000D02*
X128750000Y-99135000D01*
X147750000Y-97865000D02*
X147750000Y-97230000D01*
X147750000Y-99135000D02*
X147750000Y-99770000D01*
X148385000Y-99135000D02*
X147115000Y-99135000D01*
X147750000Y-99135000D02*
X147115000Y-97865000D01*
X147115000Y-97865000D02*
X148385000Y-97865000D01*
X148385000Y-97865000D02*
X147750000Y-99135000D01*
X166750000Y-97865000D02*
X166750000Y-97230000D01*
X166750000Y-99135000D02*
X166750000Y-99770000D01*
X167385000Y-99135000D02*
X166115000Y-99135000D01*
X166750000Y-99135000D02*
X166115000Y-97865000D01*
X166115000Y-97865000D02*
X167385000Y-97865000D01*
X167385000Y-97865000D02*
X166750000Y-99135000D01*
X185750000Y-97865000D02*
X185750000Y-97230000D01*
X185750000Y-99135000D02*
X185750000Y-99770000D01*
X186385000Y-99135000D02*
X185115000Y-99135000D01*
X185750000Y-99135000D02*
X185115000Y-97865000D01*
X185115000Y-97865000D02*
X186385000Y-97865000D01*
X186385000Y-97865000D02*
X185750000Y-99135000D01*
X203250000Y-97865000D02*
X203250000Y-97230000D01*
X203250000Y-99135000D02*
X203250000Y-99770000D01*
X203885000Y-99135000D02*
X202615000Y-99135000D01*
X203250000Y-99135000D02*
X202615000Y-97865000D01*
X202615000Y-97865000D02*
X203885000Y-97865000D01*
X203885000Y-97865000D02*
X203250000Y-99135000D01*
X206250000Y-97865000D02*
X206250000Y-97230000D01*
X206250000Y-99135000D02*
X206250000Y-99770000D01*
X206885000Y-99135000D02*
X205615000Y-99135000D01*
X206250000Y-99135000D02*
X205615000Y-97865000D01*
X205615000Y-97865000D02*
X206885000Y-97865000D01*
X206885000Y-97865000D02*
X206250000Y-99135000D01*
X52750000Y-114865000D02*
X52750000Y-114230000D01*
X52750000Y-116135000D02*
X52750000Y-116770000D01*
X53385000Y-116135000D02*
X52115000Y-116135000D01*
X52750000Y-116135000D02*
X52115000Y-114865000D01*
X52115000Y-114865000D02*
X53385000Y-114865000D01*
X53385000Y-114865000D02*
X52750000Y-116135000D01*
X71750000Y-116865000D02*
X71750000Y-116230000D01*
X71750000Y-118135000D02*
X71750000Y-118770000D01*
X72385000Y-118135000D02*
X71115000Y-118135000D01*
X71750000Y-118135000D02*
X71115000Y-116865000D01*
X71115000Y-116865000D02*
X72385000Y-116865000D01*
X72385000Y-116865000D02*
X71750000Y-118135000D01*
X90750000Y-114865000D02*
X90750000Y-114230000D01*
X90750000Y-116135000D02*
X90750000Y-116770000D01*
X91385000Y-116135000D02*
X90115000Y-116135000D01*
X90750000Y-116135000D02*
X90115000Y-114865000D01*
X90115000Y-114865000D02*
X91385000Y-114865000D01*
X91385000Y-114865000D02*
X90750000Y-116135000D01*
X108250000Y-116865000D02*
X108250000Y-116230000D01*
X108250000Y-118135000D02*
X108250000Y-118770000D01*
X108885000Y-118135000D02*
X107615000Y-118135000D01*
X108250000Y-118135000D02*
X107615000Y-116865000D01*
X107615000Y-116865000D02*
X108885000Y-116865000D01*
X108885000Y-116865000D02*
X108250000Y-118135000D01*
X111250000Y-116865000D02*
X111250000Y-116230000D01*
X111250000Y-118135000D02*
X111250000Y-118770000D01*
X111885000Y-118135000D02*
X110615000Y-118135000D01*
X111250000Y-118135000D02*
X110615000Y-116865000D01*
X110615000Y-116865000D02*
X111885000Y-116865000D01*
X111885000Y-116865000D02*
X111250000Y-118135000D01*
X147750000Y-116865000D02*
X147750000Y-116230000D01*
X147750000Y-118135000D02*
X147750000Y-118770000D01*
X148385000Y-118135000D02*
X147115000Y-118135000D01*
X147750000Y-118135000D02*
X147115000Y-116865000D01*
X147115000Y-116865000D02*
X148385000Y-116865000D01*
X148385000Y-116865000D02*
X147750000Y-118135000D01*
X166750000Y-114865000D02*
X166750000Y-114230000D01*
X166750000Y-116135000D02*
X166750000Y-116770000D01*
X167385000Y-116135000D02*
X166115000Y-116135000D01*
X166750000Y-116135000D02*
X166115000Y-114865000D01*
X166115000Y-114865000D02*
X167385000Y-114865000D01*
X167385000Y-114865000D02*
X166750000Y-116135000D01*
X185750000Y-116865000D02*
X185750000Y-116230000D01*
X185750000Y-118135000D02*
X185750000Y-118770000D01*
X186385000Y-118135000D02*
X185115000Y-118135000D01*
X185750000Y-118135000D02*
X185115000Y-116865000D01*
X185115000Y-116865000D02*
X186385000Y-116865000D01*
X186385000Y-116865000D02*
X185750000Y-118135000D01*
X203250000Y-114865000D02*
X203250000Y-114230000D01*
X203250000Y-116135000D02*
X203250000Y-116770000D01*
X203885000Y-116135000D02*
X202615000Y-116135000D01*
X203250000Y-116135000D02*
X202615000Y-114865000D01*
X202615000Y-114865000D02*
X203885000Y-114865000D01*
X203885000Y-114865000D02*
X203250000Y-116135000D01*
X206250000Y-114865000D02*
X206250000Y-114230000D01*
X206250000Y-116135000D02*
X206250000Y-116770000D01*
X206885000Y-116135000D02*
X205615000Y-116135000D01*
X206250000Y-116135000D02*
X205615000Y-114865000D01*
X205615000Y-114865000D02*
X206885000Y-114865000D01*
X206885000Y-114865000D02*
X206250000Y-116135000D01*
X36750000Y-74500000D02*
X49750000Y-74500000D01*
X49750000Y-74500000D02*
X49750000Y-87500000D01*
X49750000Y-87500000D02*
X36750000Y-87500000D01*
X36750000Y-87500000D02*
X36750000Y-74500000D01*
X55750000Y-74500000D02*
X68750000Y-74500000D01*
X68750000Y-74500000D02*
X68750000Y-87500000D01*
X68750000Y-87500000D02*
X55750000Y-87500000D01*
X55750000Y-87500000D02*
X55750000Y-74500000D01*
X74750000Y-74500000D02*
X87750000Y-74500000D01*
X87750000Y-74500000D02*
X87750000Y-87500000D01*
X87750000Y-87500000D02*
X74750000Y-87500000D01*
X74750000Y-87500000D02*
X74750000Y-74500000D01*
X93750000Y-74500000D02*
X106750000Y-74500000D01*
X106750000Y-74500000D02*
X106750000Y-87500000D01*
X106750000Y-87500000D02*
X93750000Y-87500000D01*
X93750000Y-87500000D02*
X93750000Y-74500000D01*
X112750000Y-74500000D02*
X125750000Y-74500000D01*
X125750000Y-74500000D02*
X125750000Y-87500000D01*
X125750000Y-87500000D02*
X112750000Y-87500000D01*
X112750000Y-87500000D02*
X112750000Y-74500000D01*
X131750000Y-74500000D02*
X144750000Y-74500000D01*
X144750000Y-74500000D02*
X144750000Y-87500000D01*
X144750000Y-87500000D02*
X131750000Y-87500000D01*
X131750000Y-87500000D02*
X131750000Y-74500000D01*
X150750000Y-74500000D02*
X163750000Y-74500000D01*
X163750000Y-74500000D02*
X163750000Y-87500000D01*
X163750000Y-87500000D02*
X150750000Y-87500000D01*
X150750000Y-87500000D02*
X150750000Y-74500000D01*
X169750000Y-74500000D02*
X182750000Y-74500000D01*
X182750000Y-74500000D02*
X182750000Y-87500000D01*
X182750000Y-87500000D02*
X169750000Y-87500000D01*
X169750000Y-87500000D02*
X169750000Y-74500000D01*
X188750000Y-74500000D02*
X201750000Y-74500000D01*
X201750000Y-74500000D02*
X201750000Y-87500000D01*
X201750000Y-87500000D02*
X188750000Y-87500000D01*
X188750000Y-87500000D02*
X188750000Y-74500000D01*
X207750000Y-74500000D02*
X220750000Y-74500000D01*
X220750000Y-74500000D02*
X220750000Y-87500000D01*
X220750000Y-87500000D02*
X207750000Y-87500000D01*
X207750000Y-87500000D02*
X207750000Y-74500000D01*
X36750000Y-93500000D02*
X49750000Y-93500000D01*
X49750000Y-93500000D02*
X49750000Y-106500000D01*
X49750000Y-106500000D02*
X36750000Y-106500000D01*
X36750000Y-106500000D02*
X36750000Y-93500000D01*
X55750000Y-93500000D02*
X68750000Y-93500000D01*
X68750000Y-93500000D02*
X68750000Y-106500000D01*
X68750000Y-106500000D02*
X55750000Y-106500000D01*
X55750000Y-106500000D02*
X55750000Y-93500000D01*
X74750000Y-93500000D02*
X87750000Y-93500000D01*
X87750000Y-93500000D02*
X87750000Y-106500000D01*
X87750000Y-106500000D02*
X74750000Y-106500000D01*
X74750000Y-106500000D02*
X74750000Y-93500000D01*
X93750000Y-93500000D02*
X106750000Y-93500000D01*
X106750000Y-93500000D02*
X106750000Y-106500000D01*
X106750000Y-106500000D02*
X93750000Y-106500000D01*
X93750000Y-106500000D02*
X93750000Y-93500000D01*
X112750000Y-93500000D02*
X125750000Y-93500000D01*
X125750000Y-93500000D02*
X125750000Y-106500000D01*
X125750000Y-106500000D02*
X112750000Y-106500000D01*
X112750000Y-106500000D02*
X112750000Y-93500000D01*
X131750000Y-93500000D02*
X144750000Y-93500000D01*
X144750000Y-93500000D02*
X144750000Y-106500000D01*
X144750000Y-106500000D02*
X131750000Y-106500000D01*
X131750000Y-106500000D02*
X131750000Y-93500000D01*
X150750000Y-93500000D02*
X163750000Y-93500000D01*
X163750000Y-93500000D02*
X163750000Y-106500000D01*
X163750000Y-106500000D02*
X150750000Y-106500000D01*
X150750000Y-106500000D02*
X150750000Y-93500000D01*
X169750000Y-93500000D02*
X182750000Y-93500000D01*
X182750000Y-93500000D02*
X182750000Y-106500000D01*
X182750000Y-106500000D02*
X169750000Y-106500000D01*
X169750000Y-106500000D02*
X169750000Y-93500000D01*
X188750000Y-93500000D02*
X201750000Y-93500000D01*
X201750000Y-93500000D02*
X201750000Y-106500000D01*
X201750000Y-106500000D02*
X188750000Y-106500000D01*
X188750000Y-106500000D02*
X188750000Y-93500000D01*
X207750000Y-93500000D02*
X220750000Y-93500000D01*
X220750000Y-93500000D02*
X220750000Y-106500000D01*
X220750000Y-106500000D02*
X207750000Y-106500000D01*
X207750000Y-106500000D02*
X207750000Y-93500000D01*
X36750000Y-112500000D02*
X49750000Y-112500000D01*
X49750000Y-112500000D02*
X49750000Y-125500000D01*
X49750000Y-125500000D02*
X36750000Y-125500000D01*
X36750000Y-125500000D02*
X36750000Y-112500000D01*
X55750000Y-112500000D02*
X68750000Y-112500000D01*
X68750000Y-112500000D02*
X68750000Y-125500000D01*
X68750000Y-125500000D02*
X55750000Y-125500000D01*
X55750000Y-125500000D02*
X55750000Y-112500000D01*
X74750000Y-112500000D02*
X87750000Y-112500000D01*
X87750000Y-112500000D02*
X87750000Y-125500000D01*
X87750000Y-125500000D02*
X74750000Y-125500000D01*
X74750000Y-125500000D02*
X74750000Y-112500000D01*
X93750000Y-112500000D02*
X106750000Y-112500000D01*
X106750000Y-112500000D02*
X106750000Y-125500000D01*
X106750000Y-125500000D02*
X93750000Y-125500000D01*
X93750000Y-125500000D02*
X93750000Y-112500000D01*
X112750000Y-112500000D02*
X125750000Y-112500000D01*
X125750000Y-112500000D02*
X125750000Y-125500000D01*
X125750000Y-125500000D02*
X112750000Y-125500000D01*
X112750000Y-125500000D02*
X112750000Y-112500000D01*
X131750000Y-112500000D02*
X144750000Y-112500000D01*
X144750000Y-112500000D02*
X144750000Y-125500000D01*
X144750000Y-125500000D02*
X131750000Y-125500000D01*
X131750000Y-125500000D02*
X131750000Y-112500000D01*
X150750000Y-112500000D02*
X163750000Y-112500000D01*
X163750000Y-112500000D02*
X163750000Y-125500000D01*
X163750000Y-125500000D02*
X150750000Y-125500000D01*
X150750000Y-125500000D02*
X150750000Y-112500000D01*
X169750000Y-112500000D02*
X182750000Y-112500000D01*
X182750000Y-112500000D02*
X182750000Y-125500000D01*
X182750000Y-125500000D02*
X169750000Y-125500000D01*
X169750000Y-125500000D02*
X169750000Y-112500000D01*
X188750000Y-112500000D02*
X201750000Y-112500000D01*
X201750000Y-112500000D02*
X201750000Y-125500000D01*
X201750000Y-125500000D02*
X188750000Y-125500000D01*
X188750000Y-125500000D02*
X188750000Y-112500000D01*
X207750000Y-112500000D02*
X220750000Y-112500000D01*
X220750000Y-112500000D02*
X220750000Y-125500000D01*
X220750000Y-125500000D02*
X207750000Y-125500000D01*
X207750000Y-125500000D02*
X207750000Y-112500000D01*
X125750000Y-108300000D02*
X125750000Y-110700000D01*
X126350000Y-112500000D02*
X131150000Y-112500000D01*
X131750000Y-110700000D02*
X131750000Y-108300000D01*
X131150000Y-106500000D02*
X126350000Y-106500000D01*
X51170381Y-85238095D02*
X50170381Y-85238095D01*
X50170381Y-85000000D01*
X50218000Y-84857142D01*
X50313238Y-84761904D01*
X50408476Y-84714285D01*
X50598952Y-84666666D01*
X50741810Y-84666666D01*
X50932286Y-84714285D01*
X51027524Y-84761904D01*
X51122762Y-84857142D01*
X51170381Y-85000000D01*
X51170381Y-85238095D01*
X51170381Y-83714285D02*
X51170381Y-84285714D01*
X51170381Y-84000000D02*
X50170381Y-84000000D01*
X50313238Y-84095238D01*
X50408476Y-84190476D01*
X50456095Y-84285714D01*
X70670381Y-80238095D02*
X69670381Y-80238095D01*
X69670381Y-80000000D01*
X69718000Y-79857142D01*
X69813238Y-79761904D01*
X69908476Y-79714285D01*
X70098952Y-79666666D01*
X70241810Y-79666666D01*
X70432286Y-79714285D01*
X70527524Y-79761904D01*
X70622762Y-79857142D01*
X70670381Y-80000000D01*
X70670381Y-80238095D01*
X69765619Y-79285714D02*
X69718000Y-79238095D01*
X69670381Y-79142857D01*
X69670381Y-78904761D01*
X69718000Y-78809523D01*
X69765619Y-78761904D01*
X69860857Y-78714285D01*
X69956095Y-78714285D01*
X70098952Y-78761904D01*
X70670381Y-79333333D01*
X70670381Y-78714285D01*
X89170381Y-85238095D02*
X88170381Y-85238095D01*
X88170381Y-85000000D01*
X88218000Y-84857142D01*
X88313238Y-84761904D01*
X88408476Y-84714285D01*
X88598952Y-84666666D01*
X88741810Y-84666666D01*
X88932286Y-84714285D01*
X89027524Y-84761904D01*
X89122762Y-84857142D01*
X89170381Y-85000000D01*
X89170381Y-85238095D01*
X88170381Y-84333333D02*
X88170381Y-83714285D01*
X88551333Y-84047619D01*
X88551333Y-83904761D01*
X88598952Y-83809523D01*
X88646571Y-83761904D01*
X88741810Y-83714285D01*
X88979905Y-83714285D01*
X89075143Y-83761904D01*
X89122762Y-83809523D01*
X89170381Y-83904761D01*
X89170381Y-84190476D01*
X89122762Y-84285714D01*
X89075143Y-84333333D01*
X108170381Y-80238095D02*
X107170381Y-80238095D01*
X107170381Y-80000000D01*
X107218000Y-79857142D01*
X107313238Y-79761904D01*
X107408476Y-79714285D01*
X107598952Y-79666666D01*
X107741810Y-79666666D01*
X107932286Y-79714285D01*
X108027524Y-79761904D01*
X108122762Y-79857142D01*
X108170381Y-80000000D01*
X108170381Y-80238095D01*
X107503714Y-78809523D02*
X108170381Y-78809523D01*
X107122762Y-79047619D02*
X107837048Y-79285714D01*
X107837048Y-78666666D01*
X127170381Y-85238095D02*
X126170381Y-85238095D01*
X126170381Y-85000000D01*
X126218000Y-84857142D01*
X126313238Y-84761904D01*
X126408476Y-84714285D01*
X126598952Y-84666666D01*
X126741810Y-84666666D01*
X126932286Y-84714285D01*
X127027524Y-84761904D01*
X127122762Y-84857142D01*
X127170381Y-85000000D01*
X127170381Y-85238095D01*
X126170381Y-83761904D02*
X126170381Y-84238095D01*
X126646571Y-84285714D01*
X126598952Y-84238095D01*
X126551333Y-84142857D01*
X126551333Y-83904761D01*
X126598952Y-83809523D01*
X126646571Y-83761904D01*
X126741810Y-83714285D01*
X126979905Y-83714285D01*
X127075143Y-83761904D01*
X127122762Y-83809523D01*
X127170381Y-83904761D01*
X127170381Y-84142857D01*
X127122762Y-84238095D01*
X127075143Y-84285714D01*
X146170381Y-80238095D02*
X145170381Y-80238095D01*
X145170381Y-80000000D01*
X145218000Y-79857142D01*
X145313238Y-79761904D01*
X145408476Y-79714285D01*
X145598952Y-79666666D01*
X145741810Y-79666666D01*
X145932286Y-79714285D01*
X146027524Y-79761904D01*
X146122762Y-79857142D01*
X146170381Y-80000000D01*
X146170381Y-80238095D01*
X145170381Y-78809523D02*
X145170381Y-79000000D01*
X145218000Y-79095238D01*
X145265619Y-79142857D01*
X145408476Y-79238095D01*
X145598952Y-79285714D01*
X145979905Y-79285714D01*
X146075143Y-79238095D01*
X146122762Y-79190476D01*
X146170381Y-79095238D01*
X146170381Y-78904761D01*
X146122762Y-78809523D01*
X146075143Y-78761904D01*
X145979905Y-78714285D01*
X145741810Y-78714285D01*
X145646571Y-78761904D01*
X145598952Y-78809523D01*
X145551333Y-78904761D01*
X145551333Y-79095238D01*
X145598952Y-79190476D01*
X145646571Y-79238095D01*
X145741810Y-79285714D01*
X165170381Y-85238095D02*
X164170381Y-85238095D01*
X164170381Y-85000000D01*
X164218000Y-84857142D01*
X164313238Y-84761904D01*
X164408476Y-84714285D01*
X164598952Y-84666666D01*
X164741810Y-84666666D01*
X164932286Y-84714285D01*
X165027524Y-84761904D01*
X165122762Y-84857142D01*
X165170381Y-85000000D01*
X165170381Y-85238095D01*
X164170381Y-84333333D02*
X164170381Y-83666666D01*
X165170381Y-84095238D01*
X184170381Y-80238095D02*
X183170381Y-80238095D01*
X183170381Y-80000000D01*
X183218000Y-79857142D01*
X183313238Y-79761904D01*
X183408476Y-79714285D01*
X183598952Y-79666666D01*
X183741810Y-79666666D01*
X183932286Y-79714285D01*
X184027524Y-79761904D01*
X184122762Y-79857142D01*
X184170381Y-80000000D01*
X184170381Y-80238095D01*
X183598952Y-79095238D02*
X183551333Y-79190476D01*
X183503714Y-79238095D01*
X183408476Y-79285714D01*
X183360857Y-79285714D01*
X183265619Y-79238095D01*
X183218000Y-79190476D01*
X183170381Y-79095238D01*
X183170381Y-78904761D01*
X183218000Y-78809523D01*
X183265619Y-78761904D01*
X183360857Y-78714285D01*
X183408476Y-78714285D01*
X183503714Y-78761904D01*
X183551333Y-78809523D01*
X183598952Y-78904761D01*
X183598952Y-79095238D01*
X183646571Y-79190476D01*
X183694190Y-79238095D01*
X183789429Y-79285714D01*
X183979905Y-79285714D01*
X184075143Y-79238095D01*
X184122762Y-79190476D01*
X184170381Y-79095238D01*
X184170381Y-78904761D01*
X184122762Y-78809523D01*
X184075143Y-78761904D01*
X183979905Y-78714285D01*
X183789429Y-78714285D01*
X183694190Y-78761904D01*
X183646571Y-78809523D01*
X183598952Y-78904761D01*
X202202381Y-85238095D02*
X201202381Y-85238095D01*
X201202381Y-85000000D01*
X201250000Y-84857142D01*
X201345238Y-84761904D01*
X201440476Y-84714285D01*
X201630952Y-84666666D01*
X201773810Y-84666666D01*
X201964286Y-84714285D01*
X202059524Y-84761904D01*
X202154762Y-84857142D01*
X202202381Y-85000000D01*
X202202381Y-85238095D01*
X202202381Y-84190476D02*
X202202381Y-84000000D01*
X202154762Y-83904761D01*
X202107143Y-83857142D01*
X201964286Y-83761904D01*
X201773810Y-83714285D01*
X201392857Y-83714285D01*
X201297619Y-83761904D01*
X201250000Y-83809523D01*
X201202381Y-83904761D01*
X201202381Y-84095238D01*
X201250000Y-84190476D01*
X201297619Y-84238095D01*
X201392857Y-84285714D01*
X201630952Y-84285714D01*
X201726190Y-84238095D01*
X201773810Y-84190476D01*
X201821429Y-84095238D01*
X201821429Y-83904761D01*
X201773810Y-83809523D01*
X201726190Y-83761904D01*
X201630952Y-83714285D01*
X208202381Y-85714286D02*
X207202381Y-85714286D01*
X207202381Y-85476191D01*
X207250000Y-85333333D01*
X207345238Y-85238095D01*
X207440476Y-85190476D01*
X207630952Y-85142857D01*
X207773810Y-85142857D01*
X207964286Y-85190476D01*
X208059524Y-85238095D01*
X208154762Y-85333333D01*
X208202381Y-85476191D01*
X208202381Y-85714286D01*
X208202381Y-84190476D02*
X208202381Y-84761905D01*
X208202381Y-84476191D02*
X207202381Y-84476191D01*
X207345238Y-84571429D01*
X207440476Y-84666667D01*
X207488095Y-84761905D01*
X207202381Y-83571429D02*
X207202381Y-83476190D01*
X207250000Y-83380952D01*
X207297619Y-83333333D01*
X207392857Y-83285714D01*
X207583333Y-83238095D01*
X207821429Y-83238095D01*
X208011905Y-83285714D01*
X208107143Y-83333333D01*
X208154762Y-83380952D01*
X208202381Y-83476190D01*
X208202381Y-83571429D01*
X208154762Y-83666667D01*
X208107143Y-83714286D01*
X208011905Y-83761905D01*
X207821429Y-83809524D01*
X207583333Y-83809524D01*
X207392857Y-83761905D01*
X207297619Y-83714286D01*
X207250000Y-83666667D01*
X207202381Y-83571429D01*
X51170381Y-99714286D02*
X50170381Y-99714286D01*
X50170381Y-99476191D01*
X50218000Y-99333333D01*
X50313238Y-99238095D01*
X50408476Y-99190476D01*
X50598952Y-99142857D01*
X50741810Y-99142857D01*
X50932286Y-99190476D01*
X51027524Y-99238095D01*
X51122762Y-99333333D01*
X51170381Y-99476191D01*
X51170381Y-99714286D01*
X51170381Y-98190476D02*
X51170381Y-98761905D01*
X51170381Y-98476191D02*
X50170381Y-98476191D01*
X50313238Y-98571429D01*
X50408476Y-98666667D01*
X50456095Y-98761905D01*
X51170381Y-97238095D02*
X51170381Y-97809524D01*
X51170381Y-97523810D02*
X50170381Y-97523810D01*
X50313238Y-97619048D01*
X50408476Y-97714286D01*
X50456095Y-97809524D01*
X70170381Y-99714286D02*
X69170381Y-99714286D01*
X69170381Y-99476191D01*
X69218000Y-99333333D01*
X69313238Y-99238095D01*
X69408476Y-99190476D01*
X69598952Y-99142857D01*
X69741810Y-99142857D01*
X69932286Y-99190476D01*
X70027524Y-99238095D01*
X70122762Y-99333333D01*
X70170381Y-99476191D01*
X70170381Y-99714286D01*
X70170381Y-98190476D02*
X70170381Y-98761905D01*
X70170381Y-98476191D02*
X69170381Y-98476191D01*
X69313238Y-98571429D01*
X69408476Y-98666667D01*
X69456095Y-98761905D01*
X69265619Y-97809524D02*
X69218000Y-97761905D01*
X69170381Y-97666667D01*
X69170381Y-97428571D01*
X69218000Y-97333333D01*
X69265619Y-97285714D01*
X69360857Y-97238095D01*
X69456095Y-97238095D01*
X69598952Y-97285714D01*
X70170381Y-97857143D01*
X70170381Y-97238095D01*
X89170381Y-99714286D02*
X88170381Y-99714286D01*
X88170381Y-99476191D01*
X88218000Y-99333333D01*
X88313238Y-99238095D01*
X88408476Y-99190476D01*
X88598952Y-99142857D01*
X88741810Y-99142857D01*
X88932286Y-99190476D01*
X89027524Y-99238095D01*
X89122762Y-99333333D01*
X89170381Y-99476191D01*
X89170381Y-99714286D01*
X89170381Y-98190476D02*
X89170381Y-98761905D01*
X89170381Y-98476191D02*
X88170381Y-98476191D01*
X88313238Y-98571429D01*
X88408476Y-98666667D01*
X88456095Y-98761905D01*
X88170381Y-97857143D02*
X88170381Y-97238095D01*
X88551333Y-97571429D01*
X88551333Y-97428571D01*
X88598952Y-97333333D01*
X88646571Y-97285714D01*
X88741810Y-97238095D01*
X88979905Y-97238095D01*
X89075143Y-97285714D01*
X89122762Y-97333333D01*
X89170381Y-97428571D01*
X89170381Y-97714286D01*
X89122762Y-97809524D01*
X89075143Y-97857143D01*
X108170381Y-99714286D02*
X107170381Y-99714286D01*
X107170381Y-99476191D01*
X107218000Y-99333333D01*
X107313238Y-99238095D01*
X107408476Y-99190476D01*
X107598952Y-99142857D01*
X107741810Y-99142857D01*
X107932286Y-99190476D01*
X108027524Y-99238095D01*
X108122762Y-99333333D01*
X108170381Y-99476191D01*
X108170381Y-99714286D01*
X108170381Y-98190476D02*
X108170381Y-98761905D01*
X108170381Y-98476191D02*
X107170381Y-98476191D01*
X107313238Y-98571429D01*
X107408476Y-98666667D01*
X107456095Y-98761905D01*
X107503714Y-97333333D02*
X108170381Y-97333333D01*
X107122762Y-97571429D02*
X107837048Y-97809524D01*
X107837048Y-97190476D01*
X127170381Y-99714286D02*
X126170381Y-99714286D01*
X126170381Y-99476191D01*
X126218000Y-99333333D01*
X126313238Y-99238095D01*
X126408476Y-99190476D01*
X126598952Y-99142857D01*
X126741810Y-99142857D01*
X126932286Y-99190476D01*
X127027524Y-99238095D01*
X127122762Y-99333333D01*
X127170381Y-99476191D01*
X127170381Y-99714286D01*
X127170381Y-98190476D02*
X127170381Y-98761905D01*
X127170381Y-98476191D02*
X126170381Y-98476191D01*
X126313238Y-98571429D01*
X126408476Y-98666667D01*
X126456095Y-98761905D01*
X126170381Y-97285714D02*
X126170381Y-97761905D01*
X126646571Y-97809524D01*
X126598952Y-97761905D01*
X126551333Y-97666667D01*
X126551333Y-97428571D01*
X126598952Y-97333333D01*
X126646571Y-97285714D01*
X126741810Y-97238095D01*
X126979905Y-97238095D01*
X127075143Y-97285714D01*
X127122762Y-97333333D01*
X127170381Y-97428571D01*
X127170381Y-97666667D01*
X127122762Y-97761905D01*
X127075143Y-97809524D01*
X146170381Y-99714286D02*
X145170381Y-99714286D01*
X145170381Y-99476191D01*
X145218000Y-99333333D01*
X145313238Y-99238095D01*
X145408476Y-99190476D01*
X145598952Y-99142857D01*
X145741810Y-99142857D01*
X145932286Y-99190476D01*
X146027524Y-99238095D01*
X146122762Y-99333333D01*
X146170381Y-99476191D01*
X146170381Y-99714286D01*
X146170381Y-98190476D02*
X146170381Y-98761905D01*
X146170381Y-98476191D02*
X145170381Y-98476191D01*
X145313238Y-98571429D01*
X145408476Y-98666667D01*
X145456095Y-98761905D01*
X145170381Y-97333333D02*
X145170381Y-97523810D01*
X145218000Y-97619048D01*
X145265619Y-97666667D01*
X145408476Y-97761905D01*
X145598952Y-97809524D01*
X145979905Y-97809524D01*
X146075143Y-97761905D01*
X146122762Y-97714286D01*
X146170381Y-97619048D01*
X146170381Y-97428571D01*
X146122762Y-97333333D01*
X146075143Y-97285714D01*
X145979905Y-97238095D01*
X145741810Y-97238095D01*
X145646571Y-97285714D01*
X145598952Y-97333333D01*
X145551333Y-97428571D01*
X145551333Y-97619048D01*
X145598952Y-97714286D01*
X145646571Y-97761905D01*
X145741810Y-97809524D01*
X165170381Y-99714286D02*
X164170381Y-99714286D01*
X164170381Y-99476191D01*
X164218000Y-99333333D01*
X164313238Y-99238095D01*
X164408476Y-99190476D01*
X164598952Y-99142857D01*
X164741810Y-99142857D01*
X164932286Y-99190476D01*
X165027524Y-99238095D01*
X165122762Y-99333333D01*
X165170381Y-99476191D01*
X165170381Y-99714286D01*
X165170381Y-98190476D02*
X165170381Y-98761905D01*
X165170381Y-98476191D02*
X164170381Y-98476191D01*
X164313238Y-98571429D01*
X164408476Y-98666667D01*
X164456095Y-98761905D01*
X164170381Y-97857143D02*
X164170381Y-97190476D01*
X165170381Y-97619048D01*
X184170381Y-99714286D02*
X183170381Y-99714286D01*
X183170381Y-99476191D01*
X183218000Y-99333333D01*
X183313238Y-99238095D01*
X183408476Y-99190476D01*
X183598952Y-99142857D01*
X183741810Y-99142857D01*
X183932286Y-99190476D01*
X184027524Y-99238095D01*
X184122762Y-99333333D01*
X184170381Y-99476191D01*
X184170381Y-99714286D01*
X184170381Y-98190476D02*
X184170381Y-98761905D01*
X184170381Y-98476191D02*
X183170381Y-98476191D01*
X183313238Y-98571429D01*
X183408476Y-98666667D01*
X183456095Y-98761905D01*
X183598952Y-97619048D02*
X183551333Y-97714286D01*
X183503714Y-97761905D01*
X183408476Y-97809524D01*
X183360857Y-97809524D01*
X183265619Y-97761905D01*
X183218000Y-97714286D01*
X183170381Y-97619048D01*
X183170381Y-97428571D01*
X183218000Y-97333333D01*
X183265619Y-97285714D01*
X183360857Y-97238095D01*
X183408476Y-97238095D01*
X183503714Y-97285714D01*
X183551333Y-97333333D01*
X183598952Y-97428571D01*
X183598952Y-97619048D01*
X183646571Y-97714286D01*
X183694190Y-97761905D01*
X183789429Y-97809524D01*
X183979905Y-97809524D01*
X184075143Y-97761905D01*
X184122762Y-97714286D01*
X184170381Y-97619048D01*
X184170381Y-97428571D01*
X184122762Y-97333333D01*
X184075143Y-97285714D01*
X183979905Y-97238095D01*
X183789429Y-97238095D01*
X183694190Y-97285714D01*
X183646571Y-97333333D01*
X183598952Y-97428571D01*
X202202381Y-98714286D02*
X201202381Y-98714286D01*
X201202381Y-98476191D01*
X201250000Y-98333333D01*
X201345238Y-98238095D01*
X201440476Y-98190476D01*
X201630952Y-98142857D01*
X201773810Y-98142857D01*
X201964286Y-98190476D01*
X202059524Y-98238095D01*
X202154762Y-98333333D01*
X202202381Y-98476191D01*
X202202381Y-98714286D01*
X202202381Y-97190476D02*
X202202381Y-97761905D01*
X202202381Y-97476191D02*
X201202381Y-97476191D01*
X201345238Y-97571429D01*
X201440476Y-97666667D01*
X201488095Y-97761905D01*
X202202381Y-96714286D02*
X202202381Y-96523810D01*
X202154762Y-96428571D01*
X202107143Y-96380952D01*
X201964286Y-96285714D01*
X201773810Y-96238095D01*
X201392857Y-96238095D01*
X201297619Y-96285714D01*
X201250000Y-96333333D01*
X201202381Y-96428571D01*
X201202381Y-96619048D01*
X201250000Y-96714286D01*
X201297619Y-96761905D01*
X201392857Y-96809524D01*
X201630952Y-96809524D01*
X201726190Y-96761905D01*
X201773810Y-96714286D01*
X201821429Y-96619048D01*
X201821429Y-96428571D01*
X201773810Y-96333333D01*
X201726190Y-96285714D01*
X201630952Y-96238095D01*
X208202381Y-98714286D02*
X207202381Y-98714286D01*
X207202381Y-98476191D01*
X207250000Y-98333333D01*
X207345238Y-98238095D01*
X207440476Y-98190476D01*
X207630952Y-98142857D01*
X207773810Y-98142857D01*
X207964286Y-98190476D01*
X208059524Y-98238095D01*
X208154762Y-98333333D01*
X208202381Y-98476191D01*
X208202381Y-98714286D01*
X207297619Y-97761905D02*
X207250000Y-97714286D01*
X207202381Y-97619048D01*
X207202381Y-97380952D01*
X207250000Y-97285714D01*
X207297619Y-97238095D01*
X207392857Y-97190476D01*
X207488095Y-97190476D01*
X207630952Y-97238095D01*
X208202381Y-97809524D01*
X208202381Y-97190476D01*
X207202381Y-96571429D02*
X207202381Y-96476190D01*
X207250000Y-96380952D01*
X207297619Y-96333333D01*
X207392857Y-96285714D01*
X207583333Y-96238095D01*
X207821429Y-96238095D01*
X208011905Y-96285714D01*
X208107143Y-96333333D01*
X208154762Y-96380952D01*
X208202381Y-96476190D01*
X208202381Y-96571429D01*
X208154762Y-96666667D01*
X208107143Y-96714286D01*
X208011905Y-96761905D01*
X207821429Y-96809524D01*
X207583333Y-96809524D01*
X207392857Y-96761905D01*
X207297619Y-96714286D01*
X207250000Y-96666667D01*
X207202381Y-96571429D01*
X51170381Y-116714286D02*
X50170381Y-116714286D01*
X50170381Y-116476191D01*
X50218000Y-116333333D01*
X50313238Y-116238095D01*
X50408476Y-116190476D01*
X50598952Y-116142857D01*
X50741810Y-116142857D01*
X50932286Y-116190476D01*
X51027524Y-116238095D01*
X51122762Y-116333333D01*
X51170381Y-116476191D01*
X51170381Y-116714286D01*
X50265619Y-115761905D02*
X50218000Y-115714286D01*
X50170381Y-115619048D01*
X50170381Y-115380952D01*
X50218000Y-115285714D01*
X50265619Y-115238095D01*
X50360857Y-115190476D01*
X50456095Y-115190476D01*
X50598952Y-115238095D01*
X51170381Y-115809524D01*
X51170381Y-115190476D01*
X51170381Y-114238095D02*
X51170381Y-114809524D01*
X51170381Y-114523810D02*
X50170381Y-114523810D01*
X50313238Y-114619048D01*
X50408476Y-114714286D01*
X50456095Y-114809524D01*
X70170381Y-118714286D02*
X69170381Y-118714286D01*
X69170381Y-118476191D01*
X69218000Y-118333333D01*
X69313238Y-118238095D01*
X69408476Y-118190476D01*
X69598952Y-118142857D01*
X69741810Y-118142857D01*
X69932286Y-118190476D01*
X70027524Y-118238095D01*
X70122762Y-118333333D01*
X70170381Y-118476191D01*
X70170381Y-118714286D01*
X69265619Y-117761905D02*
X69218000Y-117714286D01*
X69170381Y-117619048D01*
X69170381Y-117380952D01*
X69218000Y-117285714D01*
X69265619Y-117238095D01*
X69360857Y-117190476D01*
X69456095Y-117190476D01*
X69598952Y-117238095D01*
X70170381Y-117809524D01*
X70170381Y-117190476D01*
X69265619Y-116809524D02*
X69218000Y-116761905D01*
X69170381Y-116666667D01*
X69170381Y-116428571D01*
X69218000Y-116333333D01*
X69265619Y-116285714D01*
X69360857Y-116238095D01*
X69456095Y-116238095D01*
X69598952Y-116285714D01*
X70170381Y-116857143D01*
X70170381Y-116238095D01*
X89170381Y-116714286D02*
X88170381Y-116714286D01*
X88170381Y-116476191D01*
X88218000Y-116333333D01*
X88313238Y-116238095D01*
X88408476Y-116190476D01*
X88598952Y-116142857D01*
X88741810Y-116142857D01*
X88932286Y-116190476D01*
X89027524Y-116238095D01*
X89122762Y-116333333D01*
X89170381Y-116476191D01*
X89170381Y-116714286D01*
X88265619Y-115761905D02*
X88218000Y-115714286D01*
X88170381Y-115619048D01*
X88170381Y-115380952D01*
X88218000Y-115285714D01*
X88265619Y-115238095D01*
X88360857Y-115190476D01*
X88456095Y-115190476D01*
X88598952Y-115238095D01*
X89170381Y-115809524D01*
X89170381Y-115190476D01*
X88170381Y-114857143D02*
X88170381Y-114238095D01*
X88551333Y-114571429D01*
X88551333Y-114428571D01*
X88598952Y-114333333D01*
X88646571Y-114285714D01*
X88741810Y-114238095D01*
X88979905Y-114238095D01*
X89075143Y-114285714D01*
X89122762Y-114333333D01*
X89170381Y-114428571D01*
X89170381Y-114714286D01*
X89122762Y-114809524D01*
X89075143Y-114857143D01*
X107202381Y-117714286D02*
X106202381Y-117714286D01*
X106202381Y-117476191D01*
X106250000Y-117333333D01*
X106345238Y-117238095D01*
X106440476Y-117190476D01*
X106630952Y-117142857D01*
X106773810Y-117142857D01*
X106964286Y-117190476D01*
X107059524Y-117238095D01*
X107154762Y-117333333D01*
X107202381Y-117476191D01*
X107202381Y-117714286D01*
X106297619Y-116761905D02*
X106250000Y-116714286D01*
X106202381Y-116619048D01*
X106202381Y-116380952D01*
X106250000Y-116285714D01*
X106297619Y-116238095D01*
X106392857Y-116190476D01*
X106488095Y-116190476D01*
X106630952Y-116238095D01*
X107202381Y-116809524D01*
X107202381Y-116190476D01*
X106535714Y-115333333D02*
X107202381Y-115333333D01*
X106154762Y-115571429D02*
X106869048Y-115809524D01*
X106869048Y-115190476D01*
X113202381Y-117714286D02*
X112202381Y-117714286D01*
X112202381Y-117476191D01*
X112250000Y-117333333D01*
X112345238Y-117238095D01*
X112440476Y-117190476D01*
X112630952Y-117142857D01*
X112773810Y-117142857D01*
X112964286Y-117190476D01*
X113059524Y-117238095D01*
X113154762Y-117333333D01*
X113202381Y-117476191D01*
X113202381Y-117714286D01*
X112297619Y-116761905D02*
X112250000Y-116714286D01*
X112202381Y-116619048D01*
X112202381Y-116380952D01*
X112250000Y-116285714D01*
X112297619Y-116238095D01*
X112392857Y-116190476D01*
X112488095Y-116190476D01*
X112630952Y-116238095D01*
X113202381Y-116809524D01*
X113202381Y-116190476D01*
X112202381Y-115285714D02*
X112202381Y-115761905D01*
X112678571Y-115809524D01*
X112630952Y-115761905D01*
X112583333Y-115666667D01*
X112583333Y-115428571D01*
X112630952Y-115333333D01*
X112678571Y-115285714D01*
X112773810Y-115238095D01*
X113011905Y-115238095D01*
X113107143Y-115285714D01*
X113154762Y-115333333D01*
X113202381Y-115428571D01*
X113202381Y-115666667D01*
X113154762Y-115761905D01*
X113107143Y-115809524D01*
X146170381Y-118714286D02*
X145170381Y-118714286D01*
X145170381Y-118476191D01*
X145218000Y-118333333D01*
X145313238Y-118238095D01*
X145408476Y-118190476D01*
X145598952Y-118142857D01*
X145741810Y-118142857D01*
X145932286Y-118190476D01*
X146027524Y-118238095D01*
X146122762Y-118333333D01*
X146170381Y-118476191D01*
X146170381Y-118714286D01*
X145265619Y-117761905D02*
X145218000Y-117714286D01*
X145170381Y-117619048D01*
X145170381Y-117380952D01*
X145218000Y-117285714D01*
X145265619Y-117238095D01*
X145360857Y-117190476D01*
X145456095Y-117190476D01*
X145598952Y-117238095D01*
X146170381Y-117809524D01*
X146170381Y-117190476D01*
X145170381Y-116333333D02*
X145170381Y-116523810D01*
X145218000Y-116619048D01*
X145265619Y-116666667D01*
X145408476Y-116761905D01*
X145598952Y-116809524D01*
X145979905Y-116809524D01*
X146075143Y-116761905D01*
X146122762Y-116714286D01*
X146170381Y-116619048D01*
X146170381Y-116428571D01*
X146122762Y-116333333D01*
X146075143Y-116285714D01*
X145979905Y-116238095D01*
X145741810Y-116238095D01*
X145646571Y-116285714D01*
X145598952Y-116333333D01*
X145551333Y-116428571D01*
X145551333Y-116619048D01*
X145598952Y-116714286D01*
X145646571Y-116761905D01*
X145741810Y-116809524D01*
X165170381Y-116714286D02*
X164170381Y-116714286D01*
X164170381Y-116476191D01*
X164218000Y-116333333D01*
X164313238Y-116238095D01*
X164408476Y-116190476D01*
X164598952Y-116142857D01*
X164741810Y-116142857D01*
X164932286Y-116190476D01*
X165027524Y-116238095D01*
X165122762Y-116333333D01*
X165170381Y-116476191D01*
X165170381Y-116714286D01*
X164265619Y-115761905D02*
X164218000Y-115714286D01*
X164170381Y-115619048D01*
X164170381Y-115380952D01*
X164218000Y-115285714D01*
X164265619Y-115238095D01*
X164360857Y-115190476D01*
X164456095Y-115190476D01*
X164598952Y-115238095D01*
X165170381Y-115809524D01*
X165170381Y-115190476D01*
X164170381Y-114857143D02*
X164170381Y-114190476D01*
X165170381Y-114619048D01*
X184170381Y-118714286D02*
X183170381Y-118714286D01*
X183170381Y-118476191D01*
X183218000Y-118333333D01*
X183313238Y-118238095D01*
X183408476Y-118190476D01*
X183598952Y-118142857D01*
X183741810Y-118142857D01*
X183932286Y-118190476D01*
X184027524Y-118238095D01*
X184122762Y-118333333D01*
X184170381Y-118476191D01*
X184170381Y-118714286D01*
X183265619Y-117761905D02*
X183218000Y-117714286D01*
X183170381Y-117619048D01*
X183170381Y-117380952D01*
X183218000Y-117285714D01*
X183265619Y-117238095D01*
X183360857Y-117190476D01*
X183456095Y-117190476D01*
X183598952Y-117238095D01*
X184170381Y-117809524D01*
X184170381Y-117190476D01*
X183598952Y-116619048D02*
X183551333Y-116714286D01*
X183503714Y-116761905D01*
X183408476Y-116809524D01*
X183360857Y-116809524D01*
X183265619Y-116761905D01*
X183218000Y-116714286D01*
X183170381Y-116619048D01*
X183170381Y-116428571D01*
X183218000Y-116333333D01*
X183265619Y-116285714D01*
X183360857Y-116238095D01*
X183408476Y-116238095D01*
X183503714Y-116285714D01*
X183551333Y-116333333D01*
X183598952Y-116428571D01*
X183598952Y-116619048D01*
X183646571Y-116714286D01*
X183694190Y-116761905D01*
X183789429Y-116809524D01*
X183979905Y-116809524D01*
X184075143Y-116761905D01*
X184122762Y-116714286D01*
X184170381Y-116619048D01*
X184170381Y-116428571D01*
X184122762Y-116333333D01*
X184075143Y-116285714D01*
X183979905Y-116238095D01*
X183789429Y-116238095D01*
X183694190Y-116285714D01*
X183646571Y-116333333D01*
X183598952Y-116428571D01*
X202202381Y-117714286D02*
X201202381Y-117714286D01*
X201202381Y-117476191D01*
X201250000Y-117333333D01*
X201345238Y-117238095D01*
X201440476Y-117190476D01*
X201630952Y-117142857D01*
X201773810Y-117142857D01*
X201964286Y-117190476D01*
X202059524Y-117238095D01*
X202154762Y-117333333D01*
X202202381Y-117476191D01*
X202202381Y-117714286D01*
X201297619Y-116761905D02*
X201250000Y-116714286D01*
X201202381Y-116619048D01*
X201202381Y-116380952D01*
X201250000Y-116285714D01*
X201297619Y-116238095D01*
X201392857Y-116190476D01*
X201488095Y-116190476D01*
X201630952Y-116238095D01*
X202202381Y-116809524D01*
X202202381Y-116190476D01*
X202202381Y-115714286D02*
X202202381Y-115523810D01*
X202154762Y-115428571D01*
X202107143Y-115380952D01*
X201964286Y-115285714D01*
X201773810Y-115238095D01*
X201392857Y-115238095D01*
X201297619Y-115285714D01*
X201250000Y-115333333D01*
X201202381Y-115428571D01*
X201202381Y-115619048D01*
X201250000Y-115714286D01*
X201297619Y-115761905D01*
X201392857Y-115809524D01*
X201630952Y-115809524D01*
X201726190Y-115761905D01*
X201773810Y-115714286D01*
X201821429Y-115619048D01*
X201821429Y-115428571D01*
X201773810Y-115333333D01*
X201726190Y-115285714D01*
X201630952Y-115238095D01*
X208202381Y-117714286D02*
X207202381Y-117714286D01*
X207202381Y-117476191D01*
X207250000Y-117333333D01*
X207345238Y-117238095D01*
X207440476Y-117190476D01*
X207630952Y-117142857D01*
X207773810Y-117142857D01*
X207964286Y-117190476D01*
X208059524Y-117238095D01*
X208154762Y-117333333D01*
X208202381Y-117476191D01*
X208202381Y-117714286D01*
X207202381Y-116809524D02*
X207202381Y-116190476D01*
X207583333Y-116523810D01*
X207583333Y-116380952D01*
X207630952Y-116285714D01*
X207678571Y-116238095D01*
X207773810Y-116190476D01*
X208011905Y-116190476D01*
X208107143Y-116238095D01*
X208154762Y-116285714D01*
X208202381Y-116380952D01*
X208202381Y-116666667D01*
X208154762Y-116761905D01*
X208107143Y-116809524D01*
X207202381Y-115571429D02*
X207202381Y-115476190D01*
X207250000Y-115380952D01*
X207297619Y-115333333D01*
X207392857Y-115285714D01*
X207583333Y-115238095D01*
X207821429Y-115238095D01*
X208011905Y-115285714D01*
X208107143Y-115333333D01*
X208154762Y-115380952D01*
X208202381Y-115476190D01*
X208202381Y-115571429D01*
X208154762Y-115666667D01*
X208107143Y-115714286D01*
X208011905Y-115761905D01*
X207821429Y-115809524D01*
X207583333Y-115809524D01*
X207392857Y-115761905D01*
X207297619Y-115714286D01*
X207250000Y-115666667D01*
X207202381Y-115571429D01*
X37646286Y-76372381D02*
X37646286Y-75372381D01*
X37979620Y-76086667D01*
X38312953Y-75372381D01*
X38312953Y-76372381D01*
X38693905Y-75372381D02*
X39360572Y-76372381D01*
X39360572Y-75372381D02*
X38693905Y-76372381D01*
X40265334Y-76372381D02*
X39693905Y-76372381D01*
X39979619Y-76372381D02*
X39979619Y-75372381D01*
X39884381Y-75515238D01*
X39789143Y-75610476D01*
X39693905Y-75658095D01*
X56646286Y-76372381D02*
X56646286Y-75372381D01*
X56979620Y-76086667D01*
X57312953Y-75372381D01*
X57312953Y-76372381D01*
X57693905Y-75372381D02*
X58360572Y-76372381D01*
X58360572Y-75372381D02*
X57693905Y-76372381D01*
X58693905Y-75467619D02*
X58741524Y-75420000D01*
X58836762Y-75372381D01*
X59074858Y-75372381D01*
X59170096Y-75420000D01*
X59217715Y-75467619D01*
X59265334Y-75562857D01*
X59265334Y-75658095D01*
X59217715Y-75800952D01*
X58646286Y-76372381D01*
X59265334Y-76372381D01*
X75646286Y-76372381D02*
X75646286Y-75372381D01*
X75979620Y-76086667D01*
X76312953Y-75372381D01*
X76312953Y-76372381D01*
X76693905Y-75372381D02*
X77360572Y-76372381D01*
X77360572Y-75372381D02*
X76693905Y-76372381D01*
X77646286Y-75372381D02*
X78265334Y-75372381D01*
X77932000Y-75753333D01*
X78074858Y-75753333D01*
X78170096Y-75800952D01*
X78217715Y-75848571D01*
X78265334Y-75943810D01*
X78265334Y-76181905D01*
X78217715Y-76277143D01*
X78170096Y-76324762D01*
X78074858Y-76372381D01*
X77789143Y-76372381D01*
X77693905Y-76324762D01*
X77646286Y-76277143D01*
X94646286Y-76372381D02*
X94646286Y-75372381D01*
X94979620Y-76086667D01*
X95312953Y-75372381D01*
X95312953Y-76372381D01*
X95693905Y-75372381D02*
X96360572Y-76372381D01*
X96360572Y-75372381D02*
X95693905Y-76372381D01*
X97170096Y-75705714D02*
X97170096Y-76372381D01*
X96932000Y-75324762D02*
X96693905Y-76039048D01*
X97312953Y-76039048D01*
X113646286Y-76372381D02*
X113646286Y-75372381D01*
X113979620Y-76086667D01*
X114312953Y-75372381D01*
X114312953Y-76372381D01*
X114693905Y-75372381D02*
X115360572Y-76372381D01*
X115360572Y-75372381D02*
X114693905Y-76372381D01*
X116217715Y-75372381D02*
X115741524Y-75372381D01*
X115693905Y-75848571D01*
X115741524Y-75800952D01*
X115836762Y-75753333D01*
X116074858Y-75753333D01*
X116170096Y-75800952D01*
X116217715Y-75848571D01*
X116265334Y-75943810D01*
X116265334Y-76181905D01*
X116217715Y-76277143D01*
X116170096Y-76324762D01*
X116074858Y-76372381D01*
X115836762Y-76372381D01*
X115741524Y-76324762D01*
X115693905Y-76277143D01*
X132646286Y-76372381D02*
X132646286Y-75372381D01*
X132979620Y-76086667D01*
X133312953Y-75372381D01*
X133312953Y-76372381D01*
X133693905Y-75372381D02*
X134360572Y-76372381D01*
X134360572Y-75372381D02*
X133693905Y-76372381D01*
X135170096Y-75372381D02*
X134979619Y-75372381D01*
X134884381Y-75420000D01*
X134836762Y-75467619D01*
X134741524Y-75610476D01*
X134693905Y-75800952D01*
X134693905Y-76181905D01*
X134741524Y-76277143D01*
X134789143Y-76324762D01*
X134884381Y-76372381D01*
X135074858Y-76372381D01*
X135170096Y-76324762D01*
X135217715Y-76277143D01*
X135265334Y-76181905D01*
X135265334Y-75943810D01*
X135217715Y-75848571D01*
X135170096Y-75800952D01*
X135074858Y-75753333D01*
X134884381Y-75753333D01*
X134789143Y-75800952D01*
X134741524Y-75848571D01*
X134693905Y-75943810D01*
X151646286Y-76372381D02*
X151646286Y-75372381D01*
X151979620Y-76086667D01*
X152312953Y-75372381D01*
X152312953Y-76372381D01*
X152693905Y-75372381D02*
X153360572Y-76372381D01*
X153360572Y-75372381D02*
X152693905Y-76372381D01*
X153646286Y-75372381D02*
X154312953Y-75372381D01*
X153884381Y-76372381D01*
X170646286Y-76372381D02*
X170646286Y-75372381D01*
X170979620Y-76086667D01*
X171312953Y-75372381D01*
X171312953Y-76372381D01*
X171693905Y-75372381D02*
X172360572Y-76372381D01*
X172360572Y-75372381D02*
X171693905Y-76372381D01*
X172884381Y-75800952D02*
X172789143Y-75753333D01*
X172741524Y-75705714D01*
X172693905Y-75610476D01*
X172693905Y-75562857D01*
X172741524Y-75467619D01*
X172789143Y-75420000D01*
X172884381Y-75372381D01*
X173074858Y-75372381D01*
X173170096Y-75420000D01*
X173217715Y-75467619D01*
X173265334Y-75562857D01*
X173265334Y-75610476D01*
X173217715Y-75705714D01*
X173170096Y-75753333D01*
X173074858Y-75800952D01*
X172884381Y-75800952D01*
X172789143Y-75848571D01*
X172741524Y-75896190D01*
X172693905Y-75991429D01*
X172693905Y-76181905D01*
X172741524Y-76277143D01*
X172789143Y-76324762D01*
X172884381Y-76372381D01*
X173074858Y-76372381D01*
X173170096Y-76324762D01*
X173217715Y-76277143D01*
X173265334Y-76181905D01*
X173265334Y-75991429D01*
X173217715Y-75896190D01*
X173170096Y-75848571D01*
X173074858Y-75800952D01*
X189646286Y-76372381D02*
X189646286Y-75372381D01*
X189979620Y-76086667D01*
X190312953Y-75372381D01*
X190312953Y-76372381D01*
X190693905Y-75372381D02*
X191360572Y-76372381D01*
X191360572Y-75372381D02*
X190693905Y-76372381D01*
X191789143Y-76372381D02*
X191979619Y-76372381D01*
X192074858Y-76324762D01*
X192122477Y-76277143D01*
X192217715Y-76134286D01*
X192265334Y-75943810D01*
X192265334Y-75562857D01*
X192217715Y-75467619D01*
X192170096Y-75420000D01*
X192074858Y-75372381D01*
X191884381Y-75372381D01*
X191789143Y-75420000D01*
X191741524Y-75467619D01*
X191693905Y-75562857D01*
X191693905Y-75800952D01*
X191741524Y-75896190D01*
X191789143Y-75943810D01*
X191884381Y-75991429D01*
X192074858Y-75991429D01*
X192170096Y-75943810D01*
X192217715Y-75896190D01*
X192265334Y-75800952D01*
X208170095Y-76372381D02*
X208170095Y-75372381D01*
X208503429Y-76086667D01*
X208836762Y-75372381D01*
X208836762Y-76372381D01*
X209217714Y-75372381D02*
X209884381Y-76372381D01*
X209884381Y-75372381D02*
X209217714Y-76372381D01*
X210789143Y-76372381D02*
X210217714Y-76372381D01*
X210503428Y-76372381D02*
X210503428Y-75372381D01*
X210408190Y-75515238D01*
X210312952Y-75610476D01*
X210217714Y-75658095D01*
X211408190Y-75372381D02*
X211503429Y-75372381D01*
X211598667Y-75420000D01*
X211646286Y-75467619D01*
X211693905Y-75562857D01*
X211741524Y-75753333D01*
X211741524Y-75991429D01*
X211693905Y-76181905D01*
X211646286Y-76277143D01*
X211598667Y-76324762D01*
X211503429Y-76372381D01*
X211408190Y-76372381D01*
X211312952Y-76324762D01*
X211265333Y-76277143D01*
X211217714Y-76181905D01*
X211170095Y-75991429D01*
X211170095Y-75753333D01*
X211217714Y-75562857D01*
X211265333Y-75467619D01*
X211312952Y-75420000D01*
X211408190Y-75372381D01*
X37170095Y-95372381D02*
X37170095Y-94372381D01*
X37503429Y-95086667D01*
X37836762Y-94372381D01*
X37836762Y-95372381D01*
X38217714Y-94372381D02*
X38884381Y-95372381D01*
X38884381Y-94372381D02*
X38217714Y-95372381D01*
X39789143Y-95372381D02*
X39217714Y-95372381D01*
X39503428Y-95372381D02*
X39503428Y-94372381D01*
X39408190Y-94515238D01*
X39312952Y-94610476D01*
X39217714Y-94658095D01*
X40741524Y-95372381D02*
X40170095Y-95372381D01*
X40455809Y-95372381D02*
X40455809Y-94372381D01*
X40360571Y-94515238D01*
X40265333Y-94610476D01*
X40170095Y-94658095D01*
X56170095Y-95372381D02*
X56170095Y-94372381D01*
X56503429Y-95086667D01*
X56836762Y-94372381D01*
X56836762Y-95372381D01*
X57217714Y-94372381D02*
X57884381Y-95372381D01*
X57884381Y-94372381D02*
X57217714Y-95372381D01*
X58789143Y-95372381D02*
X58217714Y-95372381D01*
X58503428Y-95372381D02*
X58503428Y-94372381D01*
X58408190Y-94515238D01*
X58312952Y-94610476D01*
X58217714Y-94658095D01*
X59170095Y-94467619D02*
X59217714Y-94420000D01*
X59312952Y-94372381D01*
X59551048Y-94372381D01*
X59646286Y-94420000D01*
X59693905Y-94467619D01*
X59741524Y-94562857D01*
X59741524Y-94658095D01*
X59693905Y-94800952D01*
X59122476Y-95372381D01*
X59741524Y-95372381D01*
X75170095Y-95372381D02*
X75170095Y-94372381D01*
X75503429Y-95086667D01*
X75836762Y-94372381D01*
X75836762Y-95372381D01*
X76217714Y-94372381D02*
X76884381Y-95372381D01*
X76884381Y-94372381D02*
X76217714Y-95372381D01*
X77789143Y-95372381D02*
X77217714Y-95372381D01*
X77503428Y-95372381D02*
X77503428Y-94372381D01*
X77408190Y-94515238D01*
X77312952Y-94610476D01*
X77217714Y-94658095D01*
X78122476Y-94372381D02*
X78741524Y-94372381D01*
X78408190Y-94753333D01*
X78551048Y-94753333D01*
X78646286Y-94800952D01*
X78693905Y-94848571D01*
X78741524Y-94943810D01*
X78741524Y-95181905D01*
X78693905Y-95277143D01*
X78646286Y-95324762D01*
X78551048Y-95372381D01*
X78265333Y-95372381D01*
X78170095Y-95324762D01*
X78122476Y-95277143D01*
X94170095Y-95372381D02*
X94170095Y-94372381D01*
X94503429Y-95086667D01*
X94836762Y-94372381D01*
X94836762Y-95372381D01*
X95217714Y-94372381D02*
X95884381Y-95372381D01*
X95884381Y-94372381D02*
X95217714Y-95372381D01*
X96789143Y-95372381D02*
X96217714Y-95372381D01*
X96503428Y-95372381D02*
X96503428Y-94372381D01*
X96408190Y-94515238D01*
X96312952Y-94610476D01*
X96217714Y-94658095D01*
X97646286Y-94705714D02*
X97646286Y-95372381D01*
X97408190Y-94324762D02*
X97170095Y-95039048D01*
X97789143Y-95039048D01*
X113170095Y-95372381D02*
X113170095Y-94372381D01*
X113503429Y-95086667D01*
X113836762Y-94372381D01*
X113836762Y-95372381D01*
X114217714Y-94372381D02*
X114884381Y-95372381D01*
X114884381Y-94372381D02*
X114217714Y-95372381D01*
X115789143Y-95372381D02*
X115217714Y-95372381D01*
X115503428Y-95372381D02*
X115503428Y-94372381D01*
X115408190Y-94515238D01*
X115312952Y-94610476D01*
X115217714Y-94658095D01*
X116693905Y-94372381D02*
X116217714Y-94372381D01*
X116170095Y-94848571D01*
X116217714Y-94800952D01*
X116312952Y-94753333D01*
X116551048Y-94753333D01*
X116646286Y-94800952D01*
X116693905Y-94848571D01*
X116741524Y-94943810D01*
X116741524Y-95181905D01*
X116693905Y-95277143D01*
X116646286Y-95324762D01*
X116551048Y-95372381D01*
X116312952Y-95372381D01*
X116217714Y-95324762D01*
X116170095Y-95277143D01*
X132170095Y-95372381D02*
X132170095Y-94372381D01*
X132503429Y-95086667D01*
X132836762Y-94372381D01*
X132836762Y-95372381D01*
X133217714Y-94372381D02*
X133884381Y-95372381D01*
X133884381Y-94372381D02*
X133217714Y-95372381D01*
X134789143Y-95372381D02*
X134217714Y-95372381D01*
X134503428Y-95372381D02*
X134503428Y-94372381D01*
X134408190Y-94515238D01*
X134312952Y-94610476D01*
X134217714Y-94658095D01*
X135646286Y-94372381D02*
X135455809Y-94372381D01*
X135360571Y-94420000D01*
X135312952Y-94467619D01*
X135217714Y-94610476D01*
X135170095Y-94800952D01*
X135170095Y-95181905D01*
X135217714Y-95277143D01*
X135265333Y-95324762D01*
X135360571Y-95372381D01*
X135551048Y-95372381D01*
X135646286Y-95324762D01*
X135693905Y-95277143D01*
X135741524Y-95181905D01*
X135741524Y-94943810D01*
X135693905Y-94848571D01*
X135646286Y-94800952D01*
X135551048Y-94753333D01*
X135360571Y-94753333D01*
X135265333Y-94800952D01*
X135217714Y-94848571D01*
X135170095Y-94943810D01*
X151170095Y-95372381D02*
X151170095Y-94372381D01*
X151503429Y-95086667D01*
X151836762Y-94372381D01*
X151836762Y-95372381D01*
X152217714Y-94372381D02*
X152884381Y-95372381D01*
X152884381Y-94372381D02*
X152217714Y-95372381D01*
X153789143Y-95372381D02*
X153217714Y-95372381D01*
X153503428Y-95372381D02*
X153503428Y-94372381D01*
X153408190Y-94515238D01*
X153312952Y-94610476D01*
X153217714Y-94658095D01*
X154122476Y-94372381D02*
X154789143Y-94372381D01*
X154360571Y-95372381D01*
X170170095Y-95372381D02*
X170170095Y-94372381D01*
X170503429Y-95086667D01*
X170836762Y-94372381D01*
X170836762Y-95372381D01*
X171217714Y-94372381D02*
X171884381Y-95372381D01*
X171884381Y-94372381D02*
X171217714Y-95372381D01*
X172789143Y-95372381D02*
X172217714Y-95372381D01*
X172503428Y-95372381D02*
X172503428Y-94372381D01*
X172408190Y-94515238D01*
X172312952Y-94610476D01*
X172217714Y-94658095D01*
X173360571Y-94800952D02*
X173265333Y-94753333D01*
X173217714Y-94705714D01*
X173170095Y-94610476D01*
X173170095Y-94562857D01*
X173217714Y-94467619D01*
X173265333Y-94420000D01*
X173360571Y-94372381D01*
X173551048Y-94372381D01*
X173646286Y-94420000D01*
X173693905Y-94467619D01*
X173741524Y-94562857D01*
X173741524Y-94610476D01*
X173693905Y-94705714D01*
X173646286Y-94753333D01*
X173551048Y-94800952D01*
X173360571Y-94800952D01*
X173265333Y-94848571D01*
X173217714Y-94896190D01*
X173170095Y-94991429D01*
X173170095Y-95181905D01*
X173217714Y-95277143D01*
X173265333Y-95324762D01*
X173360571Y-95372381D01*
X173551048Y-95372381D01*
X173646286Y-95324762D01*
X173693905Y-95277143D01*
X173741524Y-95181905D01*
X173741524Y-94991429D01*
X173693905Y-94896190D01*
X173646286Y-94848571D01*
X173551048Y-94800952D01*
X189170095Y-95372381D02*
X189170095Y-94372381D01*
X189503429Y-95086667D01*
X189836762Y-94372381D01*
X189836762Y-95372381D01*
X190217714Y-94372381D02*
X190884381Y-95372381D01*
X190884381Y-94372381D02*
X190217714Y-95372381D01*
X191789143Y-95372381D02*
X191217714Y-95372381D01*
X191503428Y-95372381D02*
X191503428Y-94372381D01*
X191408190Y-94515238D01*
X191312952Y-94610476D01*
X191217714Y-94658095D01*
X192265333Y-95372381D02*
X192455809Y-95372381D01*
X192551048Y-95324762D01*
X192598667Y-95277143D01*
X192693905Y-95134286D01*
X192741524Y-94943810D01*
X192741524Y-94562857D01*
X192693905Y-94467619D01*
X192646286Y-94420000D01*
X192551048Y-94372381D01*
X192360571Y-94372381D01*
X192265333Y-94420000D01*
X192217714Y-94467619D01*
X192170095Y-94562857D01*
X192170095Y-94800952D01*
X192217714Y-94896190D01*
X192265333Y-94943810D01*
X192360571Y-94991429D01*
X192551048Y-94991429D01*
X192646286Y-94943810D01*
X192693905Y-94896190D01*
X192741524Y-94800952D01*
X208170095Y-95372381D02*
X208170095Y-94372381D01*
X208503429Y-95086667D01*
X208836762Y-94372381D01*
X208836762Y-95372381D01*
X209217714Y-94372381D02*
X209884381Y-95372381D01*
X209884381Y-94372381D02*
X209217714Y-95372381D01*
X210217714Y-94467619D02*
X210265333Y-94420000D01*
X210360571Y-94372381D01*
X210598667Y-94372381D01*
X210693905Y-94420000D01*
X210741524Y-94467619D01*
X210789143Y-94562857D01*
X210789143Y-94658095D01*
X210741524Y-94800952D01*
X210170095Y-95372381D01*
X210789143Y-95372381D01*
X211408190Y-94372381D02*
X211503429Y-94372381D01*
X211598667Y-94420000D01*
X211646286Y-94467619D01*
X211693905Y-94562857D01*
X211741524Y-94753333D01*
X211741524Y-94991429D01*
X211693905Y-95181905D01*
X211646286Y-95277143D01*
X211598667Y-95324762D01*
X211503429Y-95372381D01*
X211408190Y-95372381D01*
X211312952Y-95324762D01*
X211265333Y-95277143D01*
X211217714Y-95181905D01*
X211170095Y-94991429D01*
X211170095Y-94753333D01*
X211217714Y-94562857D01*
X211265333Y-94467619D01*
X211312952Y-94420000D01*
X211408190Y-94372381D01*
X37170095Y-114372381D02*
X37170095Y-113372381D01*
X37503429Y-114086667D01*
X37836762Y-113372381D01*
X37836762Y-114372381D01*
X38217714Y-113372381D02*
X38884381Y-114372381D01*
X38884381Y-113372381D02*
X38217714Y-114372381D01*
X39217714Y-113467619D02*
X39265333Y-113420000D01*
X39360571Y-113372381D01*
X39598667Y-113372381D01*
X39693905Y-113420000D01*
X39741524Y-113467619D01*
X39789143Y-113562857D01*
X39789143Y-113658095D01*
X39741524Y-113800952D01*
X39170095Y-114372381D01*
X39789143Y-114372381D01*
X40741524Y-114372381D02*
X40170095Y-114372381D01*
X40455809Y-114372381D02*
X40455809Y-113372381D01*
X40360571Y-113515238D01*
X40265333Y-113610476D01*
X40170095Y-113658095D01*
X56170095Y-114372381D02*
X56170095Y-113372381D01*
X56503429Y-114086667D01*
X56836762Y-113372381D01*
X56836762Y-114372381D01*
X57217714Y-113372381D02*
X57884381Y-114372381D01*
X57884381Y-113372381D02*
X57217714Y-114372381D01*
X58217714Y-113467619D02*
X58265333Y-113420000D01*
X58360571Y-113372381D01*
X58598667Y-113372381D01*
X58693905Y-113420000D01*
X58741524Y-113467619D01*
X58789143Y-113562857D01*
X58789143Y-113658095D01*
X58741524Y-113800952D01*
X58170095Y-114372381D01*
X58789143Y-114372381D01*
X59170095Y-113467619D02*
X59217714Y-113420000D01*
X59312952Y-113372381D01*
X59551048Y-113372381D01*
X59646286Y-113420000D01*
X59693905Y-113467619D01*
X59741524Y-113562857D01*
X59741524Y-113658095D01*
X59693905Y-113800952D01*
X59122476Y-114372381D01*
X59741524Y-114372381D01*
X75170095Y-114372381D02*
X75170095Y-113372381D01*
X75503429Y-114086667D01*
X75836762Y-113372381D01*
X75836762Y-114372381D01*
X76217714Y-113372381D02*
X76884381Y-114372381D01*
X76884381Y-113372381D02*
X76217714Y-114372381D01*
X77217714Y-113467619D02*
X77265333Y-113420000D01*
X77360571Y-113372381D01*
X77598667Y-113372381D01*
X77693905Y-113420000D01*
X77741524Y-113467619D01*
X77789143Y-113562857D01*
X77789143Y-113658095D01*
X77741524Y-113800952D01*
X77170095Y-114372381D01*
X77789143Y-114372381D01*
X78122476Y-113372381D02*
X78741524Y-113372381D01*
X78408190Y-113753333D01*
X78551048Y-113753333D01*
X78646286Y-113800952D01*
X78693905Y-113848571D01*
X78741524Y-113943810D01*
X78741524Y-114181905D01*
X78693905Y-114277143D01*
X78646286Y-114324762D01*
X78551048Y-114372381D01*
X78265333Y-114372381D01*
X78170095Y-114324762D01*
X78122476Y-114277143D01*
X94170095Y-114372381D02*
X94170095Y-113372381D01*
X94503429Y-114086667D01*
X94836762Y-113372381D01*
X94836762Y-114372381D01*
X95217714Y-113372381D02*
X95884381Y-114372381D01*
X95884381Y-113372381D02*
X95217714Y-114372381D01*
X96217714Y-113467619D02*
X96265333Y-113420000D01*
X96360571Y-113372381D01*
X96598667Y-113372381D01*
X96693905Y-113420000D01*
X96741524Y-113467619D01*
X96789143Y-113562857D01*
X96789143Y-113658095D01*
X96741524Y-113800952D01*
X96170095Y-114372381D01*
X96789143Y-114372381D01*
X97646286Y-113705714D02*
X97646286Y-114372381D01*
X97408190Y-113324762D02*
X97170095Y-114039048D01*
X97789143Y-114039048D01*
X113170095Y-114372381D02*
X113170095Y-113372381D01*
X113503429Y-114086667D01*
X113836762Y-113372381D01*
X113836762Y-114372381D01*
X114217714Y-113372381D02*
X114884381Y-114372381D01*
X114884381Y-113372381D02*
X114217714Y-114372381D01*
X115217714Y-113467619D02*
X115265333Y-113420000D01*
X115360571Y-113372381D01*
X115598667Y-113372381D01*
X115693905Y-113420000D01*
X115741524Y-113467619D01*
X115789143Y-113562857D01*
X115789143Y-113658095D01*
X115741524Y-113800952D01*
X115170095Y-114372381D01*
X115789143Y-114372381D01*
X116693905Y-113372381D02*
X116217714Y-113372381D01*
X116170095Y-113848571D01*
X116217714Y-113800952D01*
X116312952Y-113753333D01*
X116551048Y-113753333D01*
X116646286Y-113800952D01*
X116693905Y-113848571D01*
X116741524Y-113943810D01*
X116741524Y-114181905D01*
X116693905Y-114277143D01*
X116646286Y-114324762D01*
X116551048Y-114372381D01*
X116312952Y-114372381D01*
X116217714Y-114324762D01*
X116170095Y-114277143D01*
X132170095Y-114372381D02*
X132170095Y-113372381D01*
X132503429Y-114086667D01*
X132836762Y-113372381D01*
X132836762Y-114372381D01*
X133217714Y-113372381D02*
X133884381Y-114372381D01*
X133884381Y-113372381D02*
X133217714Y-114372381D01*
X134217714Y-113467619D02*
X134265333Y-113420000D01*
X134360571Y-113372381D01*
X134598667Y-113372381D01*
X134693905Y-113420000D01*
X134741524Y-113467619D01*
X134789143Y-113562857D01*
X134789143Y-113658095D01*
X134741524Y-113800952D01*
X134170095Y-114372381D01*
X134789143Y-114372381D01*
X135646286Y-113372381D02*
X135455809Y-113372381D01*
X135360571Y-113420000D01*
X135312952Y-113467619D01*
X135217714Y-113610476D01*
X135170095Y-113800952D01*
X135170095Y-114181905D01*
X135217714Y-114277143D01*
X135265333Y-114324762D01*
X135360571Y-114372381D01*
X135551048Y-114372381D01*
X135646286Y-114324762D01*
X135693905Y-114277143D01*
X135741524Y-114181905D01*
X135741524Y-113943810D01*
X135693905Y-113848571D01*
X135646286Y-113800952D01*
X135551048Y-113753333D01*
X135360571Y-113753333D01*
X135265333Y-113800952D01*
X135217714Y-113848571D01*
X135170095Y-113943810D01*
X151170095Y-114372381D02*
X151170095Y-113372381D01*
X151503429Y-114086667D01*
X151836762Y-113372381D01*
X151836762Y-114372381D01*
X152217714Y-113372381D02*
X152884381Y-114372381D01*
X152884381Y-113372381D02*
X152217714Y-114372381D01*
X153217714Y-113467619D02*
X153265333Y-113420000D01*
X153360571Y-113372381D01*
X153598667Y-113372381D01*
X153693905Y-113420000D01*
X153741524Y-113467619D01*
X153789143Y-113562857D01*
X153789143Y-113658095D01*
X153741524Y-113800952D01*
X153170095Y-114372381D01*
X153789143Y-114372381D01*
X154122476Y-113372381D02*
X154789143Y-113372381D01*
X154360571Y-114372381D01*
X170170095Y-114372381D02*
X170170095Y-113372381D01*
X170503429Y-114086667D01*
X170836762Y-113372381D01*
X170836762Y-114372381D01*
X171217714Y-113372381D02*
X171884381Y-114372381D01*
X171884381Y-113372381D02*
X171217714Y-114372381D01*
X172217714Y-113467619D02*
X172265333Y-113420000D01*
X172360571Y-113372381D01*
X172598667Y-113372381D01*
X172693905Y-113420000D01*
X172741524Y-113467619D01*
X172789143Y-113562857D01*
X172789143Y-113658095D01*
X172741524Y-113800952D01*
X172170095Y-114372381D01*
X172789143Y-114372381D01*
X173360571Y-113800952D02*
X173265333Y-113753333D01*
X173217714Y-113705714D01*
X173170095Y-113610476D01*
X173170095Y-113562857D01*
X173217714Y-113467619D01*
X173265333Y-113420000D01*
X173360571Y-113372381D01*
X173551048Y-113372381D01*
X173646286Y-113420000D01*
X173693905Y-113467619D01*
X173741524Y-113562857D01*
X173741524Y-113610476D01*
X173693905Y-113705714D01*
X173646286Y-113753333D01*
X173551048Y-113800952D01*
X173360571Y-113800952D01*
X173265333Y-113848571D01*
X173217714Y-113896190D01*
X173170095Y-113991429D01*
X173170095Y-114181905D01*
X173217714Y-114277143D01*
X173265333Y-114324762D01*
X173360571Y-114372381D01*
X173551048Y-114372381D01*
X173646286Y-114324762D01*
X173693905Y-114277143D01*
X173741524Y-114181905D01*
X173741524Y-113991429D01*
X173693905Y-113896190D01*
X173646286Y-113848571D01*
X173551048Y-113800952D01*
X189170095Y-114372381D02*
X189170095Y-113372381D01*
X189503429Y-114086667D01*
X189836762Y-113372381D01*
X189836762Y-114372381D01*
X190217714Y-113372381D02*
X190884381Y-114372381D01*
X190884381Y-113372381D02*
X190217714Y-114372381D01*
X191217714Y-113467619D02*
X191265333Y-113420000D01*
X191360571Y-113372381D01*
X191598667Y-113372381D01*
X191693905Y-113420000D01*
X191741524Y-113467619D01*
X191789143Y-113562857D01*
X191789143Y-113658095D01*
X191741524Y-113800952D01*
X191170095Y-114372381D01*
X191789143Y-114372381D01*
X192265333Y-114372381D02*
X192455809Y-114372381D01*
X192551048Y-114324762D01*
X192598667Y-114277143D01*
X192693905Y-114134286D01*
X192741524Y-113943810D01*
X192741524Y-113562857D01*
X192693905Y-113467619D01*
X192646286Y-113420000D01*
X192551048Y-113372381D01*
X192360571Y-113372381D01*
X192265333Y-113420000D01*
X192217714Y-113467619D01*
X192170095Y-113562857D01*
X192170095Y-113800952D01*
X192217714Y-113896190D01*
X192265333Y-113943810D01*
X192360571Y-113991429D01*
X192551048Y-113991429D01*
X192646286Y-113943810D01*
X192693905Y-113896190D01*
X192741524Y-113800952D01*
X208170095Y-114372381D02*
X208170095Y-113372381D01*
X208503429Y-114086667D01*
X208836762Y-113372381D01*
X208836762Y-114372381D01*
X209217714Y-113372381D02*
X209884381Y-114372381D01*
X209884381Y-113372381D02*
X209217714Y-114372381D01*
X210170095Y-113372381D02*
X210789143Y-113372381D01*
X210455809Y-113753333D01*
X210598667Y-113753333D01*
X210693905Y-113800952D01*
X210741524Y-113848571D01*
X210789143Y-113943810D01*
X210789143Y-114181905D01*
X210741524Y-114277143D01*
X210693905Y-114324762D01*
X210598667Y-114372381D01*
X210312952Y-114372381D01*
X210217714Y-114324762D01*
X210170095Y-114277143D01*
X211408190Y-113372381D02*
X211503429Y-113372381D01*
X211598667Y-113420000D01*
X211646286Y-113467619D01*
X211693905Y-113562857D01*
X211741524Y-113753333D01*
X211741524Y-113991429D01*
X211693905Y-114181905D01*
X211646286Y-114277143D01*
X211598667Y-114324762D01*
X211503429Y-114372381D01*
X211408190Y-114372381D01*
X211312952Y-114324762D01*
X211265333Y-114277143D01*
X211217714Y-114181905D01*
X211170095Y-113991429D01*
X211170095Y-113753333D01*
X211217714Y-113562857D01*
X211265333Y-113467619D01*
X211312952Y-113420000D01*
X211408190Y-113372381D01*
X127988095Y-109904762D02*
X128130952Y-109952381D01*
X128369048Y-109952381D01*
X128464286Y-109904762D01*
X128511905Y-109857143D01*
X128559524Y-109761905D01*
X128559524Y-109666667D01*
X128511905Y-109571429D01*
X128464286Y-109523810D01*
X128369048Y-109476190D01*
X128178571Y-109428571D01*
X128083333Y-109380952D01*
X128035714Y-109333333D01*
X127988095Y-109238095D01*
X127988095Y-109142857D01*
X128035714Y-109047619D01*
X128083333Y-109000000D01*
X128178571Y-108952381D01*
X128416667Y-108952381D01*
X128559524Y-109000000D01*
X129511905Y-109952381D02*
X128940476Y-109952381D01*
X129226190Y-109952381D02*
X129226190Y-108952381D01*
X129130952Y-109095238D01*
X129035714Y-109190476D01*
X128940476Y-109238095D01*
M02*
