G04 #@! TF.FileFunction,Copper,L1,Top,Signal*
%FSLAX46Y46*%
G04 Gerber Fmt 4.6, Leading zero omitted, Abs format (unit mm)*
G04 Created by KiCad (PCBNEW 4.0.7) date *
%MOMM*%
%LPD*%
G01*
G04 APERTURE LIST*
%ADD10C,2.000000*%
%ADD11C,1.600000*%
%ADD12C,2.540000*%
%ADD13C,1.800000*%
%ADD14C,0.300000*%
G04 APERTURE END LIST*
D10*
D11*
X52750000Y-81000000D03*
X52750000Y-88000000D03*
X72250000Y-76000000D03*
X72250000Y-83000000D03*
X90750000Y-81000000D03*
X90750000Y-88000000D03*
X109750000Y-76000000D03*
X109750000Y-83000000D03*
X128750000Y-81000000D03*
X128750000Y-88000000D03*
X147750000Y-76000000D03*
X147750000Y-83000000D03*
X166750000Y-81000000D03*
X166750000Y-88000000D03*
X185750000Y-76000000D03*
X185750000Y-83000000D03*
X203250000Y-81000000D03*
X203250000Y-88000000D03*
X206250000Y-81000000D03*
X206250000Y-88000000D03*
X52750000Y-95000000D03*
X52750000Y-102000000D03*
X71750000Y-95000000D03*
X71750000Y-102000000D03*
X90750000Y-95000000D03*
X90750000Y-102000000D03*
X109750000Y-95000000D03*
X109750000Y-102000000D03*
X128750000Y-95000000D03*
X128750000Y-102000000D03*
X147750000Y-95000000D03*
X147750000Y-102000000D03*
X166750000Y-95000000D03*
X166750000Y-102000000D03*
X185750000Y-95000000D03*
X185750000Y-102000000D03*
X203250000Y-95000000D03*
X203250000Y-102000000D03*
X206250000Y-95000000D03*
X206250000Y-102000000D03*
X52750000Y-112000000D03*
X52750000Y-119000000D03*
X71750000Y-114000000D03*
X71750000Y-121000000D03*
X90750000Y-112000000D03*
X90750000Y-119000000D03*
X108250000Y-114000000D03*
X108250000Y-121000000D03*
X111250000Y-114000000D03*
X111250000Y-121000000D03*
X147750000Y-114000000D03*
X147750000Y-121000000D03*
X166750000Y-112000000D03*
X166750000Y-119000000D03*
X185750000Y-114000000D03*
X185750000Y-121000000D03*
X203250000Y-112000000D03*
X203250000Y-119000000D03*
X206250000Y-112000000D03*
X206250000Y-119000000D03*
D12*
X39440000Y-78460000D03*
X45790000Y-75920000D03*
X58440000Y-78460000D03*
X64790000Y-75920000D03*
X77440000Y-78460000D03*
X83790000Y-75920000D03*
X96440000Y-78460000D03*
X102790000Y-75920000D03*
X115440000Y-78460000D03*
X121790000Y-75920000D03*
X134440000Y-78460000D03*
X140790000Y-75920000D03*
X153440000Y-78460000D03*
X159790000Y-75920000D03*
X172440000Y-78460000D03*
X178790000Y-75920000D03*
X191440000Y-78460000D03*
X197790000Y-75920000D03*
X210440000Y-78460000D03*
X216790000Y-75920000D03*
X39440000Y-97460000D03*
X45790000Y-94920000D03*
X58440000Y-97460000D03*
X64790000Y-94920000D03*
X77440000Y-97460000D03*
X83790000Y-94920000D03*
X96440000Y-97460000D03*
X102790000Y-94920000D03*
X115440000Y-97460000D03*
X121790000Y-94920000D03*
X134440000Y-97460000D03*
X140790000Y-94920000D03*
X153440000Y-97460000D03*
X159790000Y-94920000D03*
X172440000Y-97460000D03*
X178790000Y-94920000D03*
X191440000Y-97460000D03*
X197790000Y-94920000D03*
X210440000Y-97460000D03*
X216790000Y-94920000D03*
X39440000Y-116460000D03*
X45790000Y-113920000D03*
X58440000Y-116460000D03*
X64790000Y-113920000D03*
X77440000Y-116460000D03*
X83790000Y-113920000D03*
X96440000Y-116460000D03*
X102790000Y-113920000D03*
X115440000Y-116460000D03*
X121790000Y-113920000D03*
X134440000Y-116460000D03*
X140790000Y-113920000D03*
X153440000Y-116460000D03*
X159790000Y-113920000D03*
X172440000Y-116460000D03*
X178790000Y-113920000D03*
X191440000Y-116460000D03*
X197790000Y-113920000D03*
X210440000Y-116460000D03*
X216790000Y-113920000D03*
D13*
X125500000Y-107250000D03*
X125500000Y-111750000D03*
X132000000Y-111750000D03*
X132000000Y-107250000D03*
D11*
X38800000Y-92380000D03*
X41340000Y-92380000D03*
X43880000Y-92380000D03*
X46420000Y-92380000D03*
X48960000Y-92380000D03*
X51500000Y-92380000D03*
X54040000Y-92380000D03*
X56580000Y-92380000D03*
X59120000Y-92380000D03*
X61660000Y-92380000D03*
X64200000Y-92380000D03*
X66740000Y-92380000D03*
X66740000Y-107620000D03*
X64200000Y-107620000D03*
X61660000Y-107620000D03*
X59120000Y-107620000D03*
X56580000Y-107620000D03*
X54040000Y-107620000D03*
X51500000Y-107620000D03*
X48960000Y-107620000D03*
X46420000Y-107620000D03*
X43880000Y-107620000D03*
X41340000Y-107620000D03*
X38800000Y-107620000D03*
D14*
X72170000Y-75920000D02*
X72250000Y-76000000D01*
X64790000Y-75920000D02*
X72170000Y-75920000D01*
X109670000Y-75920000D02*
X109750000Y-76000000D01*
X102790000Y-75920000D02*
X109670000Y-75920000D01*
X147670000Y-75920000D02*
X147750000Y-76000000D01*
X140790000Y-75920000D02*
X147670000Y-75920000D01*
X123210100Y-109539900D02*
X125500000Y-107250000D01*
X49044500Y-109539900D02*
X123210100Y-109539900D01*
X47690000Y-108185400D02*
X49044500Y-109539900D01*
X47690000Y-107114900D02*
X47690000Y-108185400D01*
X46924800Y-106349700D02*
X47690000Y-107114900D01*
X42610300Y-106349700D02*
X46924800Y-106349700D01*
X41340000Y-107620000D02*
X42610300Y-106349700D01*
X124498000Y-110748000D02*
X125500000Y-111750000D01*
X47008000Y-110748000D02*
X124498000Y-110748000D01*
X43880000Y-107620000D02*
X47008000Y-110748000D01*
X142750000Y-88000000D02*
X128750000Y-88000000D01*
X147750000Y-83000000D02*
X142750000Y-88000000D01*
X67250000Y-88000000D02*
X52750000Y-88000000D01*
X72250000Y-83000000D02*
X67250000Y-88000000D01*
X114750000Y-88000000D02*
X128750000Y-88000000D01*
X109750000Y-83000000D02*
X114750000Y-88000000D01*
X206250000Y-88000000D02*
X203250000Y-88000000D01*
X190750000Y-88000000D02*
X185750000Y-83000000D01*
X203250000Y-88000000D02*
X190750000Y-88000000D01*
X180750000Y-88000000D02*
X166750000Y-88000000D01*
X185750000Y-83000000D02*
X180750000Y-88000000D01*
X161550400Y-93199600D02*
X166750000Y-88000000D01*
X133798000Y-93199600D02*
X161550400Y-93199600D01*
X124477200Y-102520400D02*
X133798000Y-93199600D01*
X113561800Y-102520400D02*
X124477200Y-102520400D01*
X111786000Y-100744600D02*
X113561800Y-102520400D01*
X107996800Y-100744600D02*
X111786000Y-100744600D01*
X106213000Y-102528400D02*
X107996800Y-100744600D01*
X94324200Y-102528400D02*
X106213000Y-102528400D01*
X92540400Y-100744600D02*
X94324200Y-102528400D01*
X88996800Y-100744600D02*
X92540400Y-100744600D01*
X87204500Y-102536900D02*
X88996800Y-100744600D01*
X72286900Y-102536900D02*
X87204500Y-102536900D01*
X71750000Y-102000000D02*
X72286900Y-102536900D01*
X62904900Y-108915100D02*
X64200000Y-107620000D01*
X61176400Y-108915100D02*
X62904900Y-108915100D01*
X60390000Y-108128700D02*
X61176400Y-108915100D01*
X60390000Y-107077000D02*
X60390000Y-108128700D01*
X55313000Y-102000000D02*
X60390000Y-107077000D01*
X52750000Y-102000000D02*
X55313000Y-102000000D01*
X185670000Y-75920000D02*
X185750000Y-76000000D01*
X178790000Y-75920000D02*
X185670000Y-75920000D01*
X71670000Y-94920000D02*
X71750000Y-95000000D01*
X64790000Y-94920000D02*
X71670000Y-94920000D01*
X90670000Y-94920000D02*
X90750000Y-95000000D01*
X83790000Y-94920000D02*
X90670000Y-94920000D01*
X167279500Y-102529500D02*
X166750000Y-102000000D01*
X185220500Y-102529500D02*
X167279500Y-102529500D01*
X185750000Y-102000000D02*
X185220500Y-102529500D01*
X147229500Y-102520500D02*
X147750000Y-102000000D01*
X129270500Y-102520500D02*
X147229500Y-102520500D01*
X128750000Y-102000000D02*
X129270500Y-102520500D01*
X127629200Y-103120800D02*
X128750000Y-102000000D01*
X110870800Y-103120800D02*
X127629200Y-103120800D01*
X109750000Y-102000000D02*
X110870800Y-103120800D01*
X108621200Y-103128800D02*
X109750000Y-102000000D01*
X91878800Y-103128800D02*
X108621200Y-103128800D01*
X90750000Y-102000000D02*
X91878800Y-103128800D01*
X87472000Y-105278000D02*
X90750000Y-102000000D01*
X64002000Y-105278000D02*
X87472000Y-105278000D01*
X61660000Y-107620000D02*
X64002000Y-105278000D01*
X109670000Y-94920000D02*
X109750000Y-95000000D01*
X102790000Y-94920000D02*
X109670000Y-94920000D01*
X128670000Y-94920000D02*
X128750000Y-95000000D01*
X121790000Y-94920000D02*
X128670000Y-94920000D01*
X147670000Y-94920000D02*
X147750000Y-95000000D01*
X140790000Y-94920000D02*
X147670000Y-94920000D01*
X166670000Y-94920000D02*
X166750000Y-95000000D01*
X159790000Y-94920000D02*
X166670000Y-94920000D01*
X185670000Y-94920000D02*
X185750000Y-95000000D01*
X178790000Y-94920000D02*
X185670000Y-94920000D01*
X203170000Y-94920000D02*
X203250000Y-95000000D01*
X197790000Y-94920000D02*
X203170000Y-94920000D01*
X71229500Y-121520500D02*
X71750000Y-121000000D01*
X55270500Y-121520500D02*
X71229500Y-121520500D01*
X52750000Y-119000000D02*
X55270500Y-121520500D01*
X196380600Y-108869400D02*
X203250000Y-102000000D01*
X141181500Y-108869400D02*
X196380600Y-108869400D01*
X135704800Y-114346100D02*
X141181500Y-108869400D01*
X130252900Y-114346100D02*
X135704800Y-114346100D01*
X128139000Y-116460000D02*
X130252900Y-114346100D01*
X118161900Y-116460000D02*
X128139000Y-116460000D01*
X115971100Y-118650800D02*
X118161900Y-116460000D01*
X115971100Y-119158500D02*
X115971100Y-118650800D01*
X114760700Y-120368900D02*
X115971100Y-119158500D01*
X113437200Y-120368900D02*
X114760700Y-120368900D01*
X112813900Y-119745600D02*
X113437200Y-120368900D01*
X109504400Y-119745600D02*
X112813900Y-119745600D01*
X108250000Y-121000000D02*
X109504400Y-119745600D01*
X50830000Y-113920000D02*
X52750000Y-112000000D01*
X45790000Y-113920000D02*
X50830000Y-113920000D01*
X71670000Y-113920000D02*
X71750000Y-114000000D01*
X64790000Y-113920000D02*
X71670000Y-113920000D01*
X88830000Y-113920000D02*
X90750000Y-112000000D01*
X83790000Y-113920000D02*
X88830000Y-113920000D01*
X108170000Y-113920000D02*
X108250000Y-114000000D01*
X102790000Y-113920000D02*
X108170000Y-113920000D01*
X111330000Y-113920000D02*
X111250000Y-114000000D01*
X121790000Y-113920000D02*
X111330000Y-113920000D01*
X164225300Y-121524700D02*
X166750000Y-119000000D01*
X148274700Y-121524700D02*
X164225300Y-121524700D01*
X147750000Y-121000000D02*
X148274700Y-121524700D01*
X147225400Y-121524600D02*
X147750000Y-121000000D01*
X111774600Y-121524600D02*
X147225400Y-121524600D01*
X111250000Y-121000000D02*
X111774600Y-121524600D01*
X185229500Y-121520500D02*
X185750000Y-121000000D01*
X169270500Y-121520500D02*
X185229500Y-121520500D01*
X166750000Y-119000000D02*
X169270500Y-121520500D01*
X200715100Y-121534900D02*
X203250000Y-119000000D01*
X186284900Y-121534900D02*
X200715100Y-121534900D01*
X185750000Y-121000000D02*
X186284900Y-121534900D01*
X203250000Y-119000000D02*
X206250000Y-119000000D01*
X147670000Y-113920000D02*
X147750000Y-114000000D01*
X140790000Y-113920000D02*
X147670000Y-113920000D01*
X164830000Y-113920000D02*
X166750000Y-112000000D01*
X159790000Y-113920000D02*
X164830000Y-113920000D01*
X185670000Y-113920000D02*
X185750000Y-114000000D01*
X178790000Y-113920000D02*
X185670000Y-113920000D01*
X201330000Y-113920000D02*
X203250000Y-112000000D01*
X197790000Y-113920000D02*
X201330000Y-113920000D01*
X191550900Y-97570900D02*
X191440000Y-97460000D01*
X191550900Y-100544000D02*
X191550900Y-97570900D01*
X187542600Y-104552300D02*
X191550900Y-100544000D01*
X142509900Y-104552300D02*
X187542600Y-104552300D01*
X133316500Y-113745700D02*
X142509900Y-104552300D01*
X125624300Y-113745700D02*
X133316500Y-113745700D01*
X123510400Y-115859600D02*
X125624300Y-113745700D01*
X116040400Y-115859600D02*
X123510400Y-115859600D01*
X115440000Y-116460000D02*
X116040400Y-115859600D01*
X63274600Y-97460000D02*
X77440000Y-97460000D01*
X61204700Y-95390100D02*
X63274600Y-97460000D01*
X55125700Y-95390100D02*
X61204700Y-95390100D01*
X52115600Y-92380000D02*
X55125700Y-95390100D01*
X51500000Y-92380000D02*
X52115600Y-92380000D01*
X209018600Y-97460000D02*
X210440000Y-97460000D01*
X204750000Y-101728600D02*
X209018600Y-97460000D01*
X204750000Y-102279000D02*
X204750000Y-101728600D01*
X196279400Y-110749600D02*
X204750000Y-102279000D01*
X140150400Y-110749600D02*
X196279400Y-110749600D01*
X134440000Y-116460000D02*
X140150400Y-110749600D01*
X82274600Y-97460000D02*
X96440000Y-97460000D01*
X80499700Y-95685100D02*
X82274600Y-97460000D01*
X74082600Y-95685100D02*
X80499700Y-95685100D01*
X73071800Y-96695900D02*
X74082600Y-95685100D01*
X63446000Y-96695900D02*
X73071800Y-96695900D01*
X60872300Y-94122200D02*
X63446000Y-96695900D01*
X55782200Y-94122200D02*
X60872300Y-94122200D01*
X54040000Y-92380000D02*
X55782200Y-94122200D01*
X120678900Y-92221100D02*
X115440000Y-97460000D01*
X144821400Y-92221100D02*
X120678900Y-92221100D01*
X152829000Y-84213500D02*
X144821400Y-92221100D01*
X182659200Y-84213500D02*
X152829000Y-84213500D01*
X188412700Y-78460000D02*
X182659200Y-84213500D01*
X191440000Y-78460000D02*
X188412700Y-78460000D01*
X110879500Y-92899500D02*
X115440000Y-97460000D01*
X100649500Y-92899500D02*
X110879500Y-92899500D01*
X86210000Y-78460000D02*
X100649500Y-92899500D01*
X77440000Y-78460000D02*
X86210000Y-78460000D01*
X210883900Y-78903900D02*
X210440000Y-78460000D01*
X210883900Y-86500800D02*
X210883900Y-78903900D01*
X220702500Y-96319400D02*
X210883900Y-86500800D01*
X220702500Y-100547900D02*
X220702500Y-96319400D01*
X217285500Y-103964900D02*
X220702500Y-100547900D01*
X206414700Y-103964900D02*
X217285500Y-103964900D01*
X198180000Y-112199600D02*
X206414700Y-103964900D01*
X176700400Y-112199600D02*
X198180000Y-112199600D01*
X172440000Y-116460000D02*
X176700400Y-112199600D01*
X45869700Y-91093800D02*
X61660000Y-91093800D01*
X45169600Y-91793900D02*
X45869700Y-91093800D01*
X45169600Y-92908800D02*
X45169600Y-91793900D01*
X40618400Y-97460000D02*
X45169600Y-92908800D01*
X39440000Y-97460000D02*
X40618400Y-97460000D01*
X61660000Y-92380000D02*
X61660000Y-91093800D01*
X111158400Y-74178400D02*
X115440000Y-78460000D01*
X79217100Y-74178400D02*
X111158400Y-74178400D01*
X74758000Y-78637500D02*
X79217100Y-74178400D01*
X74758000Y-82304400D02*
X74758000Y-78637500D01*
X65968600Y-91093800D02*
X74758000Y-82304400D01*
X61660000Y-91093800D02*
X65968600Y-91093800D01*
X100700400Y-112199600D02*
X96440000Y-116460000D01*
X123453600Y-112199600D02*
X100700400Y-112199600D01*
X124354400Y-113100400D02*
X123453600Y-112199600D01*
X128549400Y-113100400D02*
X124354400Y-113100400D01*
X138260900Y-103388900D02*
X128549400Y-113100400D01*
X163552100Y-103388900D02*
X138260900Y-103388900D01*
X169481000Y-97460000D02*
X163552100Y-103388900D01*
X172440000Y-97460000D02*
X169481000Y-97460000D01*
M02*
