G04 #@! TF.FileFunction,Copper,L2,Bot,Signal*
%FSLAX46Y46*%
G04 Gerber Fmt 4.6, Leading zero omitted, Abs format (unit mm)*
G04 Created by KiCad (PCBNEW 4.0.7) date *
%MOMM*%
%LPD*%
G01*
G04 APERTURE LIST*
%ADD10C,2.000000*%
%ADD11C,1.600000*%
%ADD12C,2.540000*%
%ADD13C,1.800000*%
%ADD14C,0.300000*%
G04 APERTURE END LIST*
D10*
D11*
X52750000Y-81000000D03*
X52750000Y-88000000D03*
X72250000Y-76000000D03*
X72250000Y-83000000D03*
X90750000Y-81000000D03*
X90750000Y-88000000D03*
X109750000Y-76000000D03*
X109750000Y-83000000D03*
X128750000Y-81000000D03*
X128750000Y-88000000D03*
X147750000Y-76000000D03*
X147750000Y-83000000D03*
X166750000Y-81000000D03*
X166750000Y-88000000D03*
X185750000Y-76000000D03*
X185750000Y-83000000D03*
X203250000Y-81000000D03*
X203250000Y-88000000D03*
X206250000Y-81000000D03*
X206250000Y-88000000D03*
X52750000Y-95000000D03*
X52750000Y-102000000D03*
X71750000Y-95000000D03*
X71750000Y-102000000D03*
X90750000Y-95000000D03*
X90750000Y-102000000D03*
X109750000Y-95000000D03*
X109750000Y-102000000D03*
X128750000Y-95000000D03*
X128750000Y-102000000D03*
X147750000Y-95000000D03*
X147750000Y-102000000D03*
X166750000Y-95000000D03*
X166750000Y-102000000D03*
X185750000Y-95000000D03*
X185750000Y-102000000D03*
X203250000Y-95000000D03*
X203250000Y-102000000D03*
X206250000Y-95000000D03*
X206250000Y-102000000D03*
X52750000Y-112000000D03*
X52750000Y-119000000D03*
X71750000Y-114000000D03*
X71750000Y-121000000D03*
X90750000Y-112000000D03*
X90750000Y-119000000D03*
X108250000Y-114000000D03*
X108250000Y-121000000D03*
X111250000Y-114000000D03*
X111250000Y-121000000D03*
X147750000Y-114000000D03*
X147750000Y-121000000D03*
X166750000Y-112000000D03*
X166750000Y-119000000D03*
X185750000Y-114000000D03*
X185750000Y-121000000D03*
X203250000Y-112000000D03*
X203250000Y-119000000D03*
X206250000Y-112000000D03*
X206250000Y-119000000D03*
D12*
X39440000Y-78460000D03*
X45790000Y-75920000D03*
X58440000Y-78460000D03*
X64790000Y-75920000D03*
X77440000Y-78460000D03*
X83790000Y-75920000D03*
X96440000Y-78460000D03*
X102790000Y-75920000D03*
X115440000Y-78460000D03*
X121790000Y-75920000D03*
X134440000Y-78460000D03*
X140790000Y-75920000D03*
X153440000Y-78460000D03*
X159790000Y-75920000D03*
X172440000Y-78460000D03*
X178790000Y-75920000D03*
X191440000Y-78460000D03*
X197790000Y-75920000D03*
X210440000Y-78460000D03*
X216790000Y-75920000D03*
X39440000Y-97460000D03*
X45790000Y-94920000D03*
X58440000Y-97460000D03*
X64790000Y-94920000D03*
X77440000Y-97460000D03*
X83790000Y-94920000D03*
X96440000Y-97460000D03*
X102790000Y-94920000D03*
X115440000Y-97460000D03*
X121790000Y-94920000D03*
X134440000Y-97460000D03*
X140790000Y-94920000D03*
X153440000Y-97460000D03*
X159790000Y-94920000D03*
X172440000Y-97460000D03*
X178790000Y-94920000D03*
X191440000Y-97460000D03*
X197790000Y-94920000D03*
X210440000Y-97460000D03*
X216790000Y-94920000D03*
X39440000Y-116460000D03*
X45790000Y-113920000D03*
X58440000Y-116460000D03*
X64790000Y-113920000D03*
X77440000Y-116460000D03*
X83790000Y-113920000D03*
X96440000Y-116460000D03*
X102790000Y-113920000D03*
X115440000Y-116460000D03*
X121790000Y-113920000D03*
X134440000Y-116460000D03*
X140790000Y-113920000D03*
X153440000Y-116460000D03*
X159790000Y-113920000D03*
X172440000Y-116460000D03*
X178790000Y-113920000D03*
X191440000Y-116460000D03*
X197790000Y-113920000D03*
X210440000Y-116460000D03*
X216790000Y-113920000D03*
D13*
X125500000Y-107250000D03*
X125500000Y-111750000D03*
X132000000Y-111750000D03*
X132000000Y-107250000D03*
D11*
X38800000Y-92380000D03*
X41340000Y-92380000D03*
X43880000Y-92380000D03*
X46420000Y-92380000D03*
X48960000Y-92380000D03*
X51500000Y-92380000D03*
X54040000Y-92380000D03*
X56580000Y-92380000D03*
X59120000Y-92380000D03*
X61660000Y-92380000D03*
X64200000Y-92380000D03*
X66740000Y-92380000D03*
X66740000Y-107620000D03*
X64200000Y-107620000D03*
X61660000Y-107620000D03*
X59120000Y-107620000D03*
X56580000Y-107620000D03*
X54040000Y-107620000D03*
X51500000Y-107620000D03*
X48960000Y-107620000D03*
X46420000Y-107620000D03*
X43880000Y-107620000D03*
X41340000Y-107620000D03*
X38800000Y-107620000D03*
D14*
X47670000Y-75920000D02*
X52750000Y-81000000D01*
X45790000Y-75920000D02*
X47670000Y-75920000D01*
X85670000Y-75920000D02*
X90750000Y-81000000D01*
X83790000Y-75920000D02*
X85670000Y-75920000D01*
X123670000Y-75920000D02*
X128750000Y-81000000D01*
X121790000Y-75920000D02*
X123670000Y-75920000D01*
X104750000Y-88000000D02*
X90750000Y-88000000D01*
X109750000Y-83000000D02*
X104750000Y-88000000D01*
X90750000Y-88000000D02*
X73000800Y-88000000D01*
X73000800Y-102522800D02*
X73000800Y-88000000D01*
X67903600Y-107620000D02*
X73000800Y-102522800D01*
X66740000Y-107620000D02*
X67903600Y-107620000D01*
X73000800Y-83750800D02*
X72250000Y-83000000D01*
X73000800Y-88000000D02*
X73000800Y-83750800D01*
X161670000Y-75920000D02*
X166750000Y-81000000D01*
X159790000Y-75920000D02*
X161670000Y-75920000D01*
X69820000Y-102000000D02*
X71750000Y-102000000D01*
X64200000Y-107620000D02*
X69820000Y-102000000D01*
X198170000Y-75920000D02*
X203250000Y-81000000D01*
X197790000Y-75920000D02*
X198170000Y-75920000D01*
X206250000Y-80151200D02*
X206250000Y-81000000D01*
X210481200Y-75920000D02*
X206250000Y-80151200D01*
X216790000Y-75920000D02*
X210481200Y-75920000D01*
X52670000Y-94920000D02*
X52750000Y-95000000D01*
X45790000Y-94920000D02*
X52670000Y-94920000D01*
X166214500Y-102535500D02*
X166750000Y-102000000D01*
X148285500Y-102535500D02*
X166214500Y-102535500D01*
X147750000Y-102000000D02*
X148285500Y-102535500D01*
X206250000Y-102000000D02*
X203250000Y-102000000D01*
X91101700Y-119000000D02*
X90750000Y-119000000D01*
X93622200Y-121520500D02*
X91101700Y-119000000D01*
X107729500Y-121520500D02*
X93622200Y-121520500D01*
X108250000Y-121000000D02*
X107729500Y-121520500D01*
X71750000Y-118446900D02*
X71750000Y-121000000D01*
X65463200Y-112160100D02*
X71750000Y-118446900D01*
X63579500Y-112160100D02*
X65463200Y-112160100D01*
X59120000Y-107700600D02*
X63579500Y-112160100D01*
X59120000Y-107620000D02*
X59120000Y-107700600D01*
X88229400Y-121520600D02*
X90750000Y-119000000D01*
X72270600Y-121520600D02*
X88229400Y-121520600D01*
X71750000Y-121000000D02*
X72270600Y-121520600D01*
X206330000Y-94920000D02*
X206250000Y-95000000D01*
X216790000Y-94920000D02*
X206330000Y-94920000D01*
X109974400Y-122275600D02*
X111250000Y-121000000D01*
X93471700Y-122275600D02*
X109974400Y-122275600D01*
X92892600Y-121696500D02*
X93471700Y-122275600D01*
X89154700Y-121696500D02*
X92892600Y-121696500D01*
X88600300Y-122250900D02*
X89154700Y-121696500D01*
X68661500Y-122250900D02*
X88600300Y-122250900D01*
X65616200Y-119205600D02*
X68661500Y-122250900D01*
X65616200Y-117210900D02*
X65616200Y-119205600D01*
X56580000Y-108174700D02*
X65616200Y-117210900D01*
X56580000Y-107620000D02*
X56580000Y-108174700D01*
X214870000Y-112000000D02*
X206250000Y-112000000D01*
X216790000Y-113920000D02*
X214870000Y-112000000D01*
X178732100Y-84752100D02*
X191440000Y-97460000D01*
X168537400Y-84752100D02*
X178732100Y-84752100D01*
X162245300Y-78460000D02*
X168537400Y-84752100D01*
X153440000Y-78460000D02*
X162245300Y-78460000D01*
X39883900Y-78903900D02*
X39440000Y-78460000D01*
X39883900Y-81239300D02*
X39883900Y-78903900D01*
X51024600Y-92380000D02*
X39883900Y-81239300D01*
X51500000Y-92380000D02*
X51024600Y-92380000D01*
X107763100Y-116460000D02*
X115440000Y-116460000D01*
X88763100Y-97460000D02*
X107763100Y-116460000D01*
X77440000Y-97460000D02*
X88763100Y-97460000D01*
X184862800Y-78460000D02*
X172440000Y-78460000D01*
X203862800Y-97460000D02*
X184862800Y-78460000D01*
X210440000Y-97460000D02*
X203862800Y-97460000D01*
X127534600Y-116460000D02*
X134440000Y-116460000D01*
X108534600Y-97460000D02*
X127534600Y-116460000D01*
X96440000Y-97460000D02*
X108534600Y-97460000D01*
X58550900Y-78570900D02*
X58440000Y-78460000D01*
X58550900Y-87869100D02*
X58550900Y-78570900D01*
X54040000Y-92380000D02*
X58550900Y-87869100D01*
X128528300Y-97460000D02*
X115440000Y-97460000D01*
X147528300Y-116460000D02*
X128528300Y-97460000D01*
X153440000Y-116460000D02*
X147528300Y-116460000D01*
X45150000Y-110750000D02*
X39440000Y-116460000D01*
X45150000Y-105092100D02*
X45150000Y-110750000D01*
X56580000Y-93662100D02*
X45150000Y-105092100D01*
X56580000Y-92380000D02*
X56580000Y-93662100D01*
X67889100Y-78460000D02*
X77440000Y-78460000D01*
X65616200Y-80732900D02*
X67889100Y-78460000D01*
X65616200Y-83343800D02*
X65616200Y-80732900D01*
X56580000Y-92380000D02*
X65616200Y-83343800D01*
X69774200Y-81725800D02*
X59120000Y-92380000D01*
X74970700Y-81725800D02*
X69774200Y-81725800D01*
X76809500Y-83564600D02*
X74970700Y-81725800D01*
X89993800Y-83564600D02*
X76809500Y-83564600D01*
X95098400Y-78460000D02*
X89993800Y-83564600D01*
X96440000Y-78460000D02*
X95098400Y-78460000D01*
X55310000Y-113330000D02*
X58440000Y-116460000D01*
X55310000Y-103711100D02*
X55310000Y-113330000D01*
X55205600Y-103606700D02*
X55310000Y-103711100D01*
X55205600Y-96294400D02*
X55205600Y-103606700D01*
X59120000Y-92380000D02*
X55205600Y-96294400D01*
X133620400Y-96640400D02*
X134440000Y-97460000D01*
X125952400Y-96640400D02*
X133620400Y-96640400D01*
X107772000Y-78460000D02*
X125952400Y-96640400D01*
X96440000Y-78460000D02*
X107772000Y-78460000D01*
X157845400Y-116460000D02*
X172440000Y-116460000D01*
X141616200Y-100230800D02*
X157845400Y-116460000D01*
X141616200Y-99775700D02*
X141616200Y-100230800D01*
X139300500Y-97460000D02*
X141616200Y-99775700D01*
X134440000Y-97460000D02*
X139300500Y-97460000D01*
X166528300Y-97460000D02*
X153440000Y-97460000D01*
X185528300Y-116460000D02*
X166528300Y-97460000D01*
X191440000Y-116460000D02*
X185528300Y-116460000D01*
X124245300Y-78460000D02*
X115440000Y-78460000D01*
X129460700Y-83675400D02*
X124245300Y-78460000D01*
X139655400Y-83675400D02*
X129460700Y-83675400D01*
X153440000Y-97460000D02*
X139655400Y-83675400D01*
X61087000Y-92380000D02*
X61660000Y-92380000D01*
X55813100Y-97653900D02*
X61087000Y-92380000D01*
X55813100Y-100555200D02*
X55813100Y-97653900D01*
X60390000Y-105132100D02*
X55813100Y-100555200D01*
X60390000Y-108121500D02*
X60390000Y-105132100D01*
X63286200Y-111017700D02*
X60390000Y-108121500D01*
X71997700Y-111017700D02*
X63286200Y-111017700D01*
X77440000Y-116460000D02*
X71997700Y-111017700D01*
X185528300Y-97460000D02*
X172440000Y-97460000D01*
X204528300Y-116460000D02*
X185528300Y-97460000D01*
X210440000Y-116460000D02*
X204528300Y-116460000D01*
X145311700Y-78460000D02*
X134440000Y-78460000D01*
X160051300Y-93199600D02*
X145311700Y-78460000D01*
X168179600Y-93199600D02*
X160051300Y-93199600D01*
X172440000Y-97460000D02*
X168179600Y-93199600D01*
X58883900Y-97903900D02*
X58440000Y-97460000D01*
X58883900Y-101787900D02*
X58883900Y-97903900D01*
X62930000Y-105834000D02*
X58883900Y-101787900D01*
X62930000Y-108163700D02*
X62930000Y-105834000D01*
X64031900Y-109265600D02*
X62930000Y-108163700D01*
X84168400Y-109265600D02*
X64031900Y-109265600D01*
X91362800Y-116460000D02*
X84168400Y-109265600D01*
X96440000Y-116460000D02*
X91362800Y-116460000D01*
X59120000Y-97460000D02*
X58440000Y-97460000D01*
X64200000Y-92380000D02*
X59120000Y-97460000D01*
M02*
