G04 #@! TF.FileFunction,Copper,L2,Bot,Signal*
%FSLAX46Y46*%
G04 Gerber Fmt 4.6, Leading zero omitted, Abs format (unit mm)*
G04 Created by KiCad (PCBNEW 4.0.7) date *
%MOMM*%
%LPD*%
G01*
G04 APERTURE LIST*
%ADD10C,2.000000*%
%ADD11C,1.600000*%
%ADD12C,2.540000*%
%ADD13C,1.800000*%
%ADD14C,0.800000*%
%ADD15C,0.800000*%
G04 APERTURE END LIST*
D10*
D11*
X38800000Y-92380000D03*
X41340000Y-92380000D03*
X43880000Y-92380000D03*
X46420000Y-92380000D03*
X48960000Y-92380000D03*
X51500000Y-92380000D03*
X54040000Y-92380000D03*
X56580000Y-92380000D03*
X59120000Y-92380000D03*
X61660000Y-92380000D03*
X64200000Y-92380000D03*
X66740000Y-92380000D03*
X66740000Y-107620000D03*
X64200000Y-107620000D03*
X61660000Y-107620000D03*
X59120000Y-107620000D03*
X56580000Y-107620000D03*
X54040000Y-107620000D03*
X51500000Y-107620000D03*
X48960000Y-107620000D03*
X46420000Y-107620000D03*
X43880000Y-107620000D03*
X41340000Y-107620000D03*
X38800000Y-107620000D03*
X52750000Y-81000000D03*
X52750000Y-88000000D03*
X72250000Y-76000000D03*
X72250000Y-83000000D03*
X90750000Y-81000000D03*
X90750000Y-88000000D03*
X109750000Y-76000000D03*
X109750000Y-83000000D03*
X128750000Y-81000000D03*
X128750000Y-88000000D03*
X147750000Y-76000000D03*
X147750000Y-83000000D03*
X166750000Y-81000000D03*
X166750000Y-88000000D03*
X185750000Y-76000000D03*
X185750000Y-83000000D03*
X203250000Y-81000000D03*
X203250000Y-88000000D03*
X206250000Y-81000000D03*
X206250000Y-88000000D03*
X52750000Y-95000000D03*
X52750000Y-102000000D03*
X71750000Y-95000000D03*
X71750000Y-102000000D03*
X90750000Y-95000000D03*
X90750000Y-102000000D03*
X109750000Y-95000000D03*
X109750000Y-102000000D03*
X128750000Y-95000000D03*
X128750000Y-102000000D03*
X147750000Y-95000000D03*
X147750000Y-102000000D03*
X166750000Y-95000000D03*
X166750000Y-102000000D03*
X185750000Y-95000000D03*
X185750000Y-102000000D03*
X203250000Y-95000000D03*
X203250000Y-102000000D03*
X206250000Y-95000000D03*
X206250000Y-102000000D03*
X52750000Y-112000000D03*
X52750000Y-119000000D03*
X71750000Y-114000000D03*
X71750000Y-121000000D03*
X90750000Y-112000000D03*
X90750000Y-119000000D03*
X108250000Y-114000000D03*
X108250000Y-121000000D03*
X111250000Y-114000000D03*
X111250000Y-121000000D03*
X147750000Y-114000000D03*
X147750000Y-121000000D03*
X166750000Y-112000000D03*
X166750000Y-119000000D03*
X185750000Y-114000000D03*
X185750000Y-121000000D03*
X203250000Y-112000000D03*
X203250000Y-119000000D03*
X206250000Y-112000000D03*
X206250000Y-119000000D03*
D12*
X39440000Y-78460000D03*
X45790000Y-75920000D03*
X58440000Y-78460000D03*
X64790000Y-75920000D03*
X77440000Y-78460000D03*
X83790000Y-75920000D03*
X96440000Y-78460000D03*
X102790000Y-75920000D03*
X115440000Y-78460000D03*
X121790000Y-75920000D03*
X134440000Y-78460000D03*
X140790000Y-75920000D03*
X153440000Y-78460000D03*
X159790000Y-75920000D03*
X172440000Y-78460000D03*
X178790000Y-75920000D03*
X191440000Y-78460000D03*
X197790000Y-75920000D03*
X210440000Y-78460000D03*
X216790000Y-75920000D03*
X39440000Y-97460000D03*
X45790000Y-94920000D03*
X58440000Y-97460000D03*
X64790000Y-94920000D03*
X77440000Y-97460000D03*
X83790000Y-94920000D03*
X96440000Y-97460000D03*
X102790000Y-94920000D03*
X115440000Y-97460000D03*
X121790000Y-94920000D03*
X134440000Y-97460000D03*
X140790000Y-94920000D03*
X153440000Y-97460000D03*
X159790000Y-94920000D03*
X172440000Y-97460000D03*
X178790000Y-94920000D03*
X191440000Y-97460000D03*
X197790000Y-94920000D03*
X210440000Y-97460000D03*
X216790000Y-94920000D03*
X39440000Y-116460000D03*
X45790000Y-113920000D03*
X58440000Y-116460000D03*
X64790000Y-113920000D03*
X77440000Y-116460000D03*
X83790000Y-113920000D03*
X96440000Y-116460000D03*
X102790000Y-113920000D03*
X115440000Y-116460000D03*
X121790000Y-113920000D03*
X134440000Y-116460000D03*
X140790000Y-113920000D03*
X153440000Y-116460000D03*
X159790000Y-113920000D03*
X172440000Y-116460000D03*
X178790000Y-113920000D03*
X191440000Y-116460000D03*
X197790000Y-113920000D03*
X210440000Y-116460000D03*
X216790000Y-113920000D03*
D13*
X125500000Y-107250000D03*
X125500000Y-111750000D03*
X132000000Y-111750000D03*
X132000000Y-107250000D03*
D14*
X110513000Y-88000000D03*
X180461300Y-84500900D03*
X97543300Y-102000000D03*
X97463100Y-104061000D03*
X83421300Y-89556800D03*
D15*
X47670000Y-75920000D02*
X52750000Y-81000000D01*
X45790000Y-75920000D02*
X47670000Y-75920000D01*
X109750000Y-87237000D02*
X110513000Y-88000000D01*
X109750000Y-83000000D02*
X109750000Y-87237000D01*
X75849700Y-86599700D02*
X72250000Y-83000000D01*
X89349700Y-86599700D02*
X75849700Y-86599700D01*
X90750000Y-88000000D02*
X89349700Y-86599700D01*
X69238900Y-105121100D02*
X66740000Y-107620000D01*
X69238900Y-92263000D02*
X69238900Y-105121100D01*
X64975900Y-88000000D02*
X69238900Y-92263000D01*
X52750000Y-88000000D02*
X64975900Y-88000000D01*
X184249100Y-84500900D02*
X180461300Y-84500900D01*
X185750000Y-83000000D02*
X184249100Y-84500900D01*
X64200000Y-107500800D02*
X64200000Y-107620000D01*
X58699200Y-102000000D02*
X64200000Y-107500800D01*
X52750000Y-102000000D02*
X58699200Y-102000000D01*
X198170000Y-75920000D02*
X203250000Y-81000000D01*
X197790000Y-75920000D02*
X198170000Y-75920000D01*
X206250000Y-79385700D02*
X206250000Y-81000000D01*
X209715700Y-75920000D02*
X206250000Y-79385700D01*
X216790000Y-75920000D02*
X209715700Y-75920000D01*
X98613800Y-103070500D02*
X97543300Y-102000000D01*
X108679500Y-103070500D02*
X98613800Y-103070500D01*
X109750000Y-102000000D02*
X108679500Y-103070500D01*
X61660000Y-107702700D02*
X61660000Y-107620000D01*
X63383300Y-109426000D02*
X61660000Y-107702700D01*
X83324000Y-109426000D02*
X63383300Y-109426000D01*
X90750000Y-102000000D02*
X83324000Y-109426000D01*
X93847200Y-122097200D02*
X90750000Y-119000000D01*
X107152800Y-122097200D02*
X93847200Y-122097200D01*
X108250000Y-121000000D02*
X107152800Y-122097200D01*
X59120000Y-107722100D02*
X59120000Y-107620000D01*
X62912800Y-111514900D02*
X59120000Y-107722100D01*
X78174300Y-111514900D02*
X62912800Y-111514900D01*
X82975300Y-116315900D02*
X78174300Y-111514900D01*
X88065900Y-116315900D02*
X82975300Y-116315900D01*
X90750000Y-119000000D02*
X88065900Y-116315900D01*
X55825300Y-122075300D02*
X52750000Y-119000000D01*
X70674700Y-122075300D02*
X55825300Y-122075300D01*
X71750000Y-121000000D02*
X70674700Y-122075300D01*
X206330000Y-94920000D02*
X206250000Y-95000000D01*
X216790000Y-94920000D02*
X206330000Y-94920000D01*
X50830000Y-113920000D02*
X52750000Y-112000000D01*
X45790000Y-113920000D02*
X50830000Y-113920000D01*
X88830000Y-113920000D02*
X90750000Y-112000000D01*
X83790000Y-113920000D02*
X88830000Y-113920000D01*
X186827300Y-122077300D02*
X185750000Y-121000000D01*
X200172700Y-122077300D02*
X186827300Y-122077300D01*
X203250000Y-119000000D02*
X200172700Y-122077300D01*
X148835500Y-122085500D02*
X147750000Y-121000000D01*
X163664500Y-122085500D02*
X148835500Y-122085500D01*
X166750000Y-119000000D02*
X163664500Y-122085500D01*
X116100400Y-125850400D02*
X111250000Y-121000000D01*
X142899600Y-125850400D02*
X116100400Y-125850400D01*
X147750000Y-121000000D02*
X142899600Y-125850400D01*
X56580000Y-108920800D02*
X56580000Y-107620000D01*
X63975100Y-116315900D02*
X56580000Y-108920800D01*
X70753600Y-116315900D02*
X63975100Y-116315900D01*
X80291700Y-125854000D02*
X70753600Y-116315900D01*
X106396000Y-125854000D02*
X80291700Y-125854000D01*
X111250000Y-121000000D02*
X106396000Y-125854000D01*
X153972600Y-77927400D02*
X153440000Y-78460000D01*
X158586600Y-77927400D02*
X153972600Y-77927400D01*
X158975100Y-78315900D02*
X158586600Y-77927400D01*
X162417800Y-78315900D02*
X158975100Y-78315900D01*
X164611900Y-80510000D02*
X162417800Y-78315900D01*
X164611900Y-81426400D02*
X164611900Y-80510000D01*
X167825300Y-84639800D02*
X164611900Y-81426400D01*
X178619800Y-84639800D02*
X167825300Y-84639800D01*
X191440000Y-97460000D02*
X178619800Y-84639800D01*
X46374200Y-81753400D02*
X51382000Y-86761200D01*
X46374200Y-79781800D02*
X46374200Y-81753400D01*
X44478400Y-77886000D02*
X46374200Y-79781800D01*
X40014000Y-77886000D02*
X44478400Y-77886000D01*
X39440000Y-78460000D02*
X40014000Y-77886000D01*
X51999900Y-86143300D02*
X51382000Y-86761200D01*
X53439500Y-86143300D02*
X51999900Y-86143300D01*
X53895800Y-86599600D02*
X53439500Y-86143300D01*
X66579600Y-86599600D02*
X53895800Y-86599600D01*
X77440000Y-97460000D02*
X66579600Y-86599600D01*
X50945300Y-91825300D02*
X51500000Y-92380000D01*
X50945300Y-87197900D02*
X50945300Y-91825300D01*
X51382000Y-86761200D02*
X50945300Y-87197900D01*
X101957500Y-108555400D02*
X97463100Y-104061000D01*
X108410700Y-108555400D02*
X101957500Y-108555400D01*
X115440000Y-115584700D02*
X108410700Y-108555400D01*
X115440000Y-116460000D02*
X115440000Y-115584700D01*
X172972600Y-77927400D02*
X172440000Y-78460000D01*
X177586600Y-77927400D02*
X172972600Y-77927400D01*
X177975100Y-78315900D02*
X177586600Y-77927400D01*
X184454000Y-78315900D02*
X177975100Y-78315900D01*
X201449600Y-95311500D02*
X184454000Y-78315900D01*
X201449600Y-95810800D02*
X201449600Y-95311500D01*
X203098800Y-97460000D02*
X201449600Y-95810800D01*
X210440000Y-97460000D02*
X203098800Y-97460000D01*
X96972600Y-96927400D02*
X96440000Y-97460000D01*
X101586600Y-96927400D02*
X96972600Y-96927400D01*
X101975100Y-97315900D02*
X101586600Y-96927400D01*
X108753600Y-97315900D02*
X101975100Y-97315900D01*
X120937700Y-109500000D02*
X108753600Y-97315900D01*
X126998100Y-109500000D02*
X120937700Y-109500000D01*
X133958100Y-116460000D02*
X126998100Y-109500000D01*
X134440000Y-116460000D02*
X133958100Y-116460000D01*
X59077900Y-79097900D02*
X58440000Y-78460000D01*
X59077900Y-82171400D02*
X59077900Y-79097900D01*
X61973000Y-85066500D02*
X59077900Y-82171400D01*
X67027000Y-85066500D02*
X61973000Y-85066500D01*
X70041100Y-88080600D02*
X67027000Y-85066500D01*
X87060600Y-88080600D02*
X70041100Y-88080600D01*
X96440000Y-97460000D02*
X87060600Y-88080600D01*
X115972600Y-96927400D02*
X115440000Y-97460000D01*
X120586600Y-96927400D02*
X115972600Y-96927400D01*
X120975100Y-97315900D02*
X120586600Y-96927400D01*
X127753600Y-97315900D02*
X120975100Y-97315900D01*
X146897700Y-116460000D02*
X127753600Y-97315900D01*
X153440000Y-116460000D02*
X146897700Y-116460000D01*
X77972600Y-77927400D02*
X77440000Y-78460000D01*
X82586600Y-77927400D02*
X77972600Y-77927400D01*
X82975100Y-78315900D02*
X82586600Y-77927400D01*
X86417800Y-78315900D02*
X82975100Y-78315900D01*
X88611900Y-80510000D02*
X86417800Y-78315900D01*
X88611900Y-81426400D02*
X88611900Y-80510000D01*
X91424000Y-84238500D02*
X88611900Y-81426400D01*
X102218500Y-84238500D02*
X91424000Y-84238500D01*
X115440000Y-97460000D02*
X102218500Y-84238500D01*
X36975700Y-113995700D02*
X39440000Y-116460000D01*
X36975700Y-106835700D02*
X36975700Y-113995700D01*
X40715900Y-103095500D02*
X36975700Y-106835700D01*
X44498700Y-103095500D02*
X40715900Y-103095500D01*
X46427900Y-101166300D02*
X44498700Y-103095500D01*
X46427900Y-99212200D02*
X46427900Y-101166300D01*
X47718800Y-97921300D02*
X46427900Y-99212200D01*
X52415300Y-97921300D02*
X47718800Y-97921300D01*
X56580000Y-93756600D02*
X52415300Y-97921300D01*
X56580000Y-92380000D02*
X56580000Y-93756600D01*
X134972600Y-96927400D02*
X134440000Y-97460000D01*
X139586600Y-96927400D02*
X134972600Y-96927400D01*
X139975100Y-97315900D02*
X139586600Y-96927400D01*
X146753600Y-97315900D02*
X139975100Y-97315900D01*
X165897700Y-116460000D02*
X146753600Y-97315900D01*
X172440000Y-116460000D02*
X165897700Y-116460000D01*
X96972600Y-77927400D02*
X96440000Y-78460000D01*
X101586600Y-77927400D02*
X96972600Y-77927400D01*
X101975100Y-78315900D02*
X101586600Y-77927400D01*
X108753600Y-78315900D02*
X101975100Y-78315900D01*
X121937700Y-91500000D02*
X108753600Y-78315900D01*
X128480000Y-91500000D02*
X121937700Y-91500000D01*
X134440000Y-97460000D02*
X128480000Y-91500000D01*
X39440000Y-96322300D02*
X39440000Y-97460000D01*
X36267900Y-93150200D02*
X39440000Y-96322300D01*
X36267900Y-78372400D02*
X36267900Y-93150200D01*
X41033800Y-73606500D02*
X36267900Y-78372400D01*
X110586500Y-73606500D02*
X41033800Y-73606500D01*
X115440000Y-78460000D02*
X110586500Y-73606500D01*
X153972600Y-96927400D02*
X153440000Y-97460000D01*
X158586600Y-96927400D02*
X153972600Y-96927400D01*
X158975100Y-97315900D02*
X158586600Y-96927400D01*
X165753600Y-97315900D02*
X158975100Y-97315900D01*
X184897700Y-116460000D02*
X165753600Y-97315900D01*
X191440000Y-116460000D02*
X184897700Y-116460000D01*
X115972600Y-77927400D02*
X115440000Y-78460000D01*
X120586600Y-77927400D02*
X115972600Y-77927400D01*
X121757100Y-79097900D02*
X120586600Y-77927400D01*
X129411400Y-79097900D02*
X121757100Y-79097900D01*
X130734600Y-80421100D02*
X129411400Y-79097900D01*
X130734600Y-81258900D02*
X130734600Y-80421100D01*
X136864900Y-87389200D02*
X130734600Y-81258900D01*
X143369200Y-87389200D02*
X136864900Y-87389200D01*
X153440000Y-97460000D02*
X143369200Y-87389200D01*
X134972600Y-77927400D02*
X134440000Y-78460000D01*
X139586600Y-77927400D02*
X134972600Y-77927400D01*
X139975100Y-78315900D02*
X139586600Y-77927400D01*
X146753600Y-78315900D02*
X139975100Y-78315900D01*
X159155800Y-90718100D02*
X146753600Y-78315900D01*
X165698100Y-90718100D02*
X159155800Y-90718100D01*
X172440000Y-97460000D02*
X165698100Y-90718100D01*
X172972600Y-96927400D02*
X172440000Y-97460000D01*
X177586600Y-96927400D02*
X172972600Y-96927400D01*
X177975100Y-97315900D02*
X177586600Y-96927400D01*
X184753600Y-97315900D02*
X177975100Y-97315900D01*
X203897700Y-116460000D02*
X184753600Y-97315900D01*
X210440000Y-116460000D02*
X203897700Y-116460000D01*
X86514100Y-92649600D02*
X83421300Y-89556800D01*
X86514100Y-95166900D02*
X86514100Y-92649600D01*
X96440000Y-105092800D02*
X86514100Y-95166900D01*
X96440000Y-116460000D02*
X96440000Y-105092800D01*
M02*
