M48
;DRILL file {KiCad 4.0.7} date 
;FORMAT={3:3/ absolute / metric / suppress leading zeros}
FMAT,2
METRIC,TZ
T1C0.300
T2C0.780
T3C0.850
T4C1.000
T5C1.524
T6C1.803
T7C2.700
T8C4.140
%
G90
G05
M71
T1
X83421Y-89557
X97463Y-104061
X97543Y-102000
X110513Y-88000
X180461Y-84501
T2
X52750Y-81000
X52750Y-88000
X52750Y-95000
X52750Y-102000
X52750Y-112000
X52750Y-119000
X71750Y-95000
X71750Y-102000
X71750Y-114000
X71750Y-121000
X72250Y-76000
X72250Y-83000
X90750Y-81000
X90750Y-88000
X90750Y-95000
X90750Y-102000
X90750Y-112000
X90750Y-119000
X108250Y-114000
X108250Y-121000
X109750Y-76000
X109750Y-83000
X109750Y-95000
X109750Y-102000
X111250Y-114000
X111250Y-121000
X128750Y-81000
X128750Y-88000
X128750Y-95000
X128750Y-102000
X147750Y-76000
X147750Y-83000
X147750Y-95000
X147750Y-102000
X147750Y-114000
X147750Y-121000
X166750Y-81000
X166750Y-88000
X166750Y-95000
X166750Y-102000
X166750Y-112000
X166750Y-119000
X185750Y-76000
X185750Y-83000
X185750Y-95000
X185750Y-102000
X185750Y-114000
X185750Y-121000
X203250Y-81000
X203250Y-88000
X203250Y-95000
X203250Y-102000
X203250Y-112000
X203250Y-119000
X206250Y-81000
X206250Y-88000
X206250Y-95000
X206250Y-102000
X206250Y-112000
X206250Y-119000
T3
X38800Y-92380
X38800Y-107620
X41340Y-92380
X41340Y-107620
X43880Y-92380
X43880Y-107620
X46420Y-92380
X46420Y-107620
X48960Y-92380
X48960Y-107620
X51500Y-92380
X51500Y-107620
X54040Y-92380
X54040Y-107620
X56580Y-92380
X56580Y-107620
X59120Y-92380
X59120Y-107620
X61660Y-92380
X61660Y-107620
X64200Y-92380
X64200Y-107620
X66740Y-92380
X66740Y-107620
T4
X125500Y-107250
X125500Y-111750
X132000Y-107250
X132000Y-111750
T5
X39440Y-78460
X39440Y-97460
X39440Y-116460
X45790Y-75920
X45790Y-94920
X45790Y-113920
X58440Y-78460
X58440Y-97460
X58440Y-116460
X64790Y-75920
X64790Y-94920
X64790Y-113920
X77440Y-78460
X77440Y-97460
X77440Y-116460
X83790Y-75920
X83790Y-94920
X83790Y-113920
X96440Y-78460
X96440Y-97460
X96440Y-116460
X102790Y-75920
X102790Y-94920
X102790Y-113920
X115440Y-78460
X115440Y-97460
X115440Y-116460
X121790Y-75920
X121790Y-94920
X121790Y-113920
X134440Y-78460
X134440Y-97460
X134440Y-116460
X140790Y-75920
X140790Y-94920
X140790Y-113920
X153440Y-78460
X153440Y-97460
X153440Y-116460
X159790Y-75920
X159790Y-94920
X159790Y-113920
X172440Y-78460
X172440Y-97460
X172440Y-116460
X178790Y-75920
X178790Y-94920
X178790Y-113920
X191440Y-78460
X191440Y-97460
X191440Y-116460
X197790Y-75920
X197790Y-94920
X197790Y-113920
X210440Y-78460
X210440Y-97460
X210440Y-116460
X216790Y-75920
X216790Y-94920
X216790Y-113920
T6
X38170Y-81000
X38170Y-100000
X38170Y-119000
X48330Y-81000
X48330Y-100000
X48330Y-119000
X57170Y-81000
X57170Y-100000
X57170Y-119000
X67330Y-81000
X67330Y-100000
X67330Y-119000
X76170Y-81000
X76170Y-100000
X76170Y-119000
X86330Y-81000
X86330Y-100000
X86330Y-119000
X95170Y-81000
X95170Y-100000
X95170Y-119000
X105330Y-81000
X105330Y-100000
X105330Y-119000
X114170Y-81000
X114170Y-100000
X114170Y-119000
X124330Y-81000
X124330Y-100000
X124330Y-119000
X133170Y-81000
X133170Y-100000
X133170Y-119000
X143330Y-81000
X143330Y-100000
X143330Y-119000
X152170Y-81000
X152170Y-100000
X152170Y-119000
X162330Y-81000
X162330Y-100000
X162330Y-119000
X171170Y-81000
X171170Y-100000
X171170Y-119000
X181330Y-81000
X181330Y-100000
X181330Y-119000
X190170Y-81000
X190170Y-100000
X190170Y-119000
X200330Y-81000
X200330Y-100000
X200330Y-119000
X209170Y-81000
X209170Y-100000
X209170Y-119000
X219330Y-81000
X219330Y-100000
X219330Y-119000
T7
X52750Y-76500
X52750Y-123500
X90750Y-76500
X90750Y-123500
X128750Y-76500
X128750Y-123500
X166750Y-76500
X166750Y-123500
X204750Y-76500
X204750Y-123500
T8
X43250Y-81000
X43250Y-100000
X43250Y-119000
X62250Y-81000
X62250Y-100000
X62250Y-119000
X81250Y-81000
X81250Y-100000
X81250Y-119000
X100250Y-81000
X100250Y-100000
X100250Y-119000
X119250Y-81000
X119250Y-100000
X119250Y-119000
X138250Y-81000
X138250Y-100000
X138250Y-119000
X157250Y-81000
X157250Y-100000
X157250Y-119000
X176250Y-81000
X176250Y-100000
X176250Y-119000
X195250Y-81000
X195250Y-100000
X195250Y-119000
X214250Y-81000
X214250Y-100000
X214250Y-119000
T0
M30
