M48
;DRILL file {KiCad 4.0.7} date 
;FORMAT={-:-/ absolute / metric / decimal}
FMAT,2
METRIC,TZ
T1C0.780
T2C0.850
T3C1.000
T4C1.524
T5C1.803
T6C2.700
T7C4.140
%
G90
G05
M71
T1
X52.75Y-81.
X52.75Y-88.
X52.75Y-95.
X52.75Y-102.
X52.75Y-112.
X52.75Y-119.
X71.75Y-95.
X71.75Y-102.
X71.75Y-114.
X71.75Y-121.
X72.25Y-76.
X72.25Y-83.
X90.75Y-81.
X90.75Y-88.
X90.75Y-95.
X90.75Y-102.
X90.75Y-112.
X90.75Y-119.
X108.25Y-114.
X108.25Y-121.
X109.75Y-76.
X109.75Y-83.
X109.75Y-95.
X109.75Y-102.
X111.25Y-114.
X111.25Y-121.
X128.75Y-81.
X128.75Y-88.
X128.75Y-95.
X128.75Y-102.
X147.75Y-76.
X147.75Y-83.
X147.75Y-95.
X147.75Y-102.
X147.75Y-114.
X147.75Y-121.
X166.75Y-81.
X166.75Y-88.
X166.75Y-95.
X166.75Y-102.
X166.75Y-112.
X166.75Y-119.
X185.75Y-76.
X185.75Y-83.
X185.75Y-95.
X185.75Y-102.
X185.75Y-114.
X185.75Y-121.
X203.25Y-81.
X203.25Y-88.
X203.25Y-95.
X203.25Y-102.
X203.25Y-112.
X203.25Y-119.
X206.25Y-81.
X206.25Y-88.
X206.25Y-95.
X206.25Y-102.
X206.25Y-112.
X206.25Y-119.
T2
X38.8Y-92.38
X38.8Y-107.62
X41.34Y-92.38
X41.34Y-107.62
X43.88Y-92.38
X43.88Y-107.62
X46.42Y-92.38
X46.42Y-107.62
X48.96Y-92.38
X48.96Y-107.62
X51.5Y-92.38
X51.5Y-107.62
X54.04Y-92.38
X54.04Y-107.62
X56.58Y-92.38
X56.58Y-107.62
X59.12Y-92.38
X59.12Y-107.62
X61.66Y-92.38
X61.66Y-107.62
X64.2Y-92.38
X64.2Y-107.62
X66.74Y-92.38
X66.74Y-107.62
T3
X125.5Y-107.25
X125.5Y-111.75
X132.Y-107.25
X132.Y-111.75
T4
X39.44Y-78.46
X39.44Y-97.46
X39.44Y-116.46
X45.79Y-75.92
X45.79Y-94.92
X45.79Y-113.92
X58.44Y-78.46
X58.44Y-97.46
X58.44Y-116.46
X64.79Y-75.92
X64.79Y-94.92
X64.79Y-113.92
X77.44Y-78.46
X77.44Y-97.46
X77.44Y-116.46
X83.79Y-75.92
X83.79Y-94.92
X83.79Y-113.92
X96.44Y-78.46
X96.44Y-97.46
X96.44Y-116.46
X102.79Y-75.92
X102.79Y-94.92
X102.79Y-113.92
X115.44Y-78.46
X115.44Y-97.46
X115.44Y-116.46
X121.79Y-75.92
X121.79Y-94.92
X121.79Y-113.92
X134.44Y-78.46
X134.44Y-97.46
X134.44Y-116.46
X140.79Y-75.92
X140.79Y-94.92
X140.79Y-113.92
X153.44Y-78.46
X153.44Y-97.46
X153.44Y-116.46
X159.79Y-75.92
X159.79Y-94.92
X159.79Y-113.92
X172.44Y-78.46
X172.44Y-97.46
X172.44Y-116.46
X178.79Y-75.92
X178.79Y-94.92
X178.79Y-113.92
X191.44Y-78.46
X191.44Y-97.46
X191.44Y-116.46
X197.79Y-75.92
X197.79Y-94.92
X197.79Y-113.92
X210.44Y-78.46
X210.44Y-97.46
X210.44Y-116.46
X216.79Y-75.92
X216.79Y-94.92
X216.79Y-113.92
T5
X38.17Y-81.
X38.17Y-100.
X38.17Y-119.
X48.33Y-81.
X48.33Y-100.
X48.33Y-119.
X57.17Y-81.
X57.17Y-100.
X57.17Y-119.
X67.33Y-81.
X67.33Y-100.
X67.33Y-119.
X76.17Y-81.
X76.17Y-100.
X76.17Y-119.
X86.33Y-81.
X86.33Y-100.
X86.33Y-119.
X95.17Y-81.
X95.17Y-100.
X95.17Y-119.
X105.33Y-81.
X105.33Y-100.
X105.33Y-119.
X114.17Y-81.
X114.17Y-100.
X114.17Y-119.
X124.33Y-81.
X124.33Y-100.
X124.33Y-119.
X133.17Y-81.
X133.17Y-100.
X133.17Y-119.
X143.33Y-81.
X143.33Y-100.
X143.33Y-119.
X152.17Y-81.
X152.17Y-100.
X152.17Y-119.
X162.33Y-81.
X162.33Y-100.
X162.33Y-119.
X171.17Y-81.
X171.17Y-100.
X171.17Y-119.
X181.33Y-81.
X181.33Y-100.
X181.33Y-119.
X190.17Y-81.
X190.17Y-100.
X190.17Y-119.
X200.33Y-81.
X200.33Y-100.
X200.33Y-119.
X209.17Y-81.
X209.17Y-100.
X209.17Y-119.
X219.33Y-81.
X219.33Y-100.
X219.33Y-119.
T6
X52.75Y-76.5
X52.75Y-123.5
X90.75Y-76.5
X90.75Y-123.5
X128.75Y-76.5
X128.75Y-123.5
X166.75Y-76.5
X166.75Y-123.5
X204.75Y-76.5
X204.75Y-123.5
T7
X43.25Y-81.
X43.25Y-100.
X43.25Y-119.
X62.25Y-81.
X62.25Y-100.
X62.25Y-119.
X81.25Y-81.
X81.25Y-100.
X81.25Y-119.
X100.25Y-81.
X100.25Y-100.
X100.25Y-119.
X119.25Y-81.
X119.25Y-100.
X119.25Y-119.
X138.25Y-81.
X138.25Y-100.
X138.25Y-119.
X157.25Y-81.
X157.25Y-100.
X157.25Y-119.
X176.25Y-81.
X176.25Y-100.
X176.25Y-119.
X195.25Y-81.
X195.25Y-100.
X195.25Y-119.
X214.25Y-81.
X214.25Y-100.
X214.25Y-119.
T0
M30
